<mxfile host="app.diagrams.net" modified="2024-07-09T19:01:22.618Z" agent="Mozilla/5.0 (Windows NT 10.0; Win64; x64) AppleWebKit/537.36 (KHTML, like Gecko) Chrome/126.0.0.0 Safari/537.36" etag="fj93gKE7iIaTmhD2Ao3w" version="24.6.4" type="device">
  <diagram name="Page-1" id="jp84wiX7xe1HpqXk9hhP">
    <mxGraphModel dx="1760" dy="1636" grid="1" gridSize="10" guides="1" tooltips="1" connect="1" arrows="1" fold="1" page="1" pageScale="1" pageWidth="850" pageHeight="1100" math="0" shadow="0">
      <root>
        <mxCell id="0" />
        <mxCell id="1" parent="0" />
        <mxCell id="J2wZCcpqfvK2SJkcsM0K-8" value="&lt;span style=&quot;font-size: 8px;&quot;&gt;&lt;i&gt;Loop&lt;/i&gt;&lt;/span&gt;" style="shape=umlFrame;whiteSpace=wrap;html=1;pointerEvents=0;shadow=1;width=70;height=30;sketch=1;curveFitting=1;jiggle=2;fillColor=default;swimlaneFillColor=#29b6f2;" parent="1" vertex="1">
          <mxGeometry x="920" y="1932" width="630" height="320" as="geometry" />
        </mxCell>
        <mxCell id="J2wZCcpqfvK2SJkcsM0K-10" value="&lt;font style=&quot;font-size: 9px;&quot;&gt;&lt;i&gt;Masstransit&lt;/i&gt;&lt;/font&gt;" style="shape=umlFrame;whiteSpace=wrap;html=1;pointerEvents=0;sketch=1;curveFitting=1;jiggle=2;" parent="1" vertex="1">
          <mxGeometry x="1160" y="1948" width="370" height="144" as="geometry" />
        </mxCell>
        <object placeholders="1" c4Name="Loop" c4Type="SystemScopeBoundary" c4Application="Every 0.250 seconds&#xa;have messages to send" label="&lt;font style=&quot;font-size: 9px;&quot;&gt;&lt;b style=&quot;font-size: 9px;&quot;&gt;&lt;div style=&quot;text-align: left; font-size: 9px;&quot;&gt;%c4Name%&lt;/div&gt;&lt;/b&gt;&lt;/font&gt;&lt;div style=&quot;text-align: left; font-size: 9px;&quot;&gt;[%c4Application%]&lt;/div&gt;" id="RgLUPbMFcPm35V3ERX6u-15">
          <mxCell style="rounded=1;fontSize=9;whiteSpace=wrap;html=1;arcSize=20;fillColor=#63bef2;strokeColor=#2086c9;fontColor=#333333;labelBackgroundColor=none;align=left;verticalAlign=top;labelBorderColor=none;spacingTop=0;spacing=10;metaEdit=1;rotatable=0;perimeter=rectanglePerimeter;noLabel=0;labelPadding=0;allowArrows=0;connectable=0;expand=0;recursiveResize=0;editable=1;pointerEvents=0;absoluteArcSize=1;points=[[0.25,0,0],[0.5,0,0],[0.75,0,0],[1,0.25,0],[1,0.5,0],[1,0.75,0],[0.75,1,0],[0.5,1,0],[0.25,1,0],[0,0.75,0],[0,0.5,0],[0,0.25,0]];sketch=1;curveFitting=1;jiggle=2;" parent="1" vertex="1">
            <mxGeometry x="10" y="1530" width="596" height="160" as="geometry" />
          </mxCell>
        </object>
        <object placeholders="1" c4Name="Thread relay" c4Type="ContainerScopeBoundary" c4Application="Container" label="&lt;font style=&quot;font-size: 16px&quot;&gt;&lt;b&gt;&lt;div style=&quot;text-align: left&quot;&gt;%c4Name%&lt;/div&gt;&lt;/b&gt;&lt;/font&gt;&lt;div style=&quot;text-align: left&quot;&gt;[%c4Application%]&lt;/div&gt;" id="sRBXPEC6CnhFeX8Rd4L1-20">
          <mxCell style="rounded=1;fontSize=11;whiteSpace=wrap;html=1;arcSize=20;fillColor=#63bef2;strokeColor=#2086c9;labelBackgroundColor=none;align=left;verticalAlign=bottom;labelBorderColor=none;spacingTop=0;spacing=10;metaEdit=1;rotatable=0;perimeter=rectanglePerimeter;noLabel=0;labelPadding=0;allowArrows=0;connectable=0;expand=0;recursiveResize=0;editable=1;pointerEvents=0;absoluteArcSize=1;points=[[0.25,0,0],[0.5,0,0],[0.75,0,0],[1,0.25,0],[1,0.5,0],[1,0.75,0],[0.75,1,0],[0.5,1,0],[0.25,1,0],[0,0.75,0],[0,0.5,0],[0,0.25,0]];sketch=1;curveFitting=1;jiggle=2;" parent="1" vertex="1">
            <mxGeometry x="206" y="470" width="500" height="120" as="geometry" />
          </mxCell>
        </object>
        <object placeholders="1" c4Name="Messages Queue/Outbox" c4Type="Container" c4Technology="RabbitMQ" c4Description="" label="&lt;font style=&quot;font-size: 16px&quot;&gt;&lt;b&gt;%c4Name%&lt;/b&gt;&lt;/font&gt;&lt;div&gt;[%c4Type%:&amp;nbsp;%c4Technology%]&lt;/div&gt;&lt;br&gt;&lt;div&gt;&lt;font style=&quot;font-size: 11px&quot;&gt;&lt;font&gt;%c4Description%&lt;/font&gt;&lt;/font&gt;&lt;/div&gt;" id="cbHOGmEnmN4e4WHKEx2--1">
          <mxCell style="shape=cylinder3;size=15;direction=south;whiteSpace=wrap;html=1;boundedLbl=1;rounded=0;labelBackgroundColor=none;fillColor=#ef8e4e;fontSize=12;fontColor=#000000;align=center;strokeColor=#8b522d;metaEdit=1;points=[[0.5,0,0],[1,0.25,0],[1,0.5,0],[1,0.75,0],[0.5,1,0],[0,0.75,0],[0,0.5,0],[0,0.25,0]];resizable=1;sketch=1;curveFitting=1;jiggle=2;" parent="1" vertex="1">
            <mxGeometry x="230" y="480" width="460" height="60" as="geometry" />
          </mxCell>
        </object>
        <object placeholders="1" c4Name="Service" c4Type="" c4Technology="C# background" c4Description="" label="&lt;font style=&quot;font-size: 16px&quot;&gt;&lt;b&gt;%c4Name%&lt;/b&gt;&lt;/font&gt;&lt;div&gt;[%c4Type%: %c4Technology%]&lt;/div&gt;&lt;br&gt;&lt;div&gt;&lt;font style=&quot;font-size: 11px&quot;&gt;%c4Description%&lt;/font&gt;&lt;/div&gt;" id="cbHOGmEnmN4e4WHKEx2--2">
          <mxCell style="rounded=1;whiteSpace=wrap;html=1;labelBackgroundColor=none;fillColor=#63BEF2;fontColor=#000000;align=center;arcSize=6;strokeColor=#2086C9;metaEdit=1;resizable=1;points=[[0.25,0,0],[0.5,0,0],[0.75,0,0],[1,0.25,0],[1,0.5,0],[1,0.75,0],[0.75,1,0],[0.5,1,0],[0.25,1,0],[0,0.75,0],[0,0.5,0],[0,0.25,0]];sketch=1;curveFitting=1;jiggle=2;shadow=1;" parent="1" vertex="1">
            <mxGeometry x="180" y="170" width="130" height="60" as="geometry" />
          </mxCell>
        </object>
        <object placeholders="1" c4Name="Service" c4Type="" c4Technology="C# background" c4Description="" label="&lt;font style=&quot;font-size: 16px&quot;&gt;&lt;b&gt;%c4Name%&lt;/b&gt;&lt;/font&gt;&lt;div&gt;[%c4Type%: %c4Technology%]&lt;/div&gt;&lt;br&gt;&lt;div&gt;&lt;font style=&quot;font-size: 11px&quot;&gt;%c4Description%&lt;/font&gt;&lt;/div&gt;" id="cbHOGmEnmN4e4WHKEx2--3">
          <mxCell style="rounded=1;whiteSpace=wrap;html=1;labelBackgroundColor=none;fillColor=#63BEF2;fontColor=#000000;align=center;arcSize=6;strokeColor=#2086C9;metaEdit=1;resizable=1;points=[[0.25,0,0],[0.5,0,0],[0.75,0,0],[1,0.25,0],[1,0.5,0],[1,0.75,0],[0.75,1,0],[0.5,1,0],[0.25,1,0],[0,0.75,0],[0,0.5,0],[0,0.25,0]];shadow=1;sketch=1;curveFitting=1;jiggle=2;" parent="1" vertex="1">
            <mxGeometry x="760" y="440" width="130" height="60" as="geometry" />
          </mxCell>
        </object>
        <object placeholders="1" c4Name="Service" c4Type="" c4Technology="C# background" c4Description="" label="&lt;font style=&quot;font-size: 16px&quot;&gt;&lt;b&gt;%c4Name%&lt;/b&gt;&lt;/font&gt;&lt;div&gt;[%c4Type%: %c4Technology%]&lt;/div&gt;&lt;br&gt;&lt;div&gt;&lt;font style=&quot;font-size: 11px&quot;&gt;%c4Description%&lt;/font&gt;&lt;/div&gt;" id="cbHOGmEnmN4e4WHKEx2--4">
          <mxCell style="rounded=1;whiteSpace=wrap;html=1;labelBackgroundColor=none;fillColor=#63BEF2;fontColor=#000000;align=center;arcSize=6;strokeColor=#2086C9;metaEdit=1;resizable=1;points=[[0.25,0,0],[0.5,0,0],[0.75,0,0],[1,0.25,0],[1,0.5,0],[1,0.75,0],[0.75,1,0],[0.5,1,0],[0.25,1,0],[0,0.75,0],[0,0.5,0],[0,0.25,0]];sketch=1;curveFitting=1;jiggle=2;shadow=1;" parent="1" vertex="1">
            <mxGeometry x="230" y="340" width="130" height="60" as="geometry" />
          </mxCell>
        </object>
        <object placeholders="1" c4Name="Service" c4Type="" c4Technology="C# background" c4Description="" label="&lt;font style=&quot;font-size: 16px&quot;&gt;&lt;b&gt;%c4Name%&lt;/b&gt;&lt;/font&gt;&lt;div&gt;[%c4Type%: %c4Technology%]&lt;/div&gt;&lt;br&gt;&lt;div&gt;&lt;font style=&quot;font-size: 11px&quot;&gt;%c4Description%&lt;/font&gt;&lt;/div&gt;" id="cbHOGmEnmN4e4WHKEx2--5">
          <mxCell style="rounded=1;whiteSpace=wrap;html=1;labelBackgroundColor=none;fillColor=#63BEF2;fontColor=#000000;align=center;arcSize=6;strokeColor=#2086C9;metaEdit=1;resizable=1;points=[[0.25,0,0],[0.5,0,0],[0.75,0,0],[1,0.25,0],[1,0.5,0],[1,0.75,0],[0.75,1,0],[0.5,1,0],[0.25,1,0],[0,0.75,0],[0,0.5,0],[0,0.25,0]];sketch=1;curveFitting=1;jiggle=2;shadow=1;" parent="1" vertex="1">
            <mxGeometry x="560" y="180" width="130" height="60" as="geometry" />
          </mxCell>
        </object>
        <object placeholders="1" c4Name="Service" c4Type="" c4Technology="C# background" c4Description="" label="&lt;font style=&quot;font-size: 16px&quot;&gt;&lt;b&gt;%c4Name%&lt;/b&gt;&lt;/font&gt;&lt;div&gt;[%c4Type%: %c4Technology%]&lt;/div&gt;&lt;br&gt;&lt;div&gt;&lt;font style=&quot;font-size: 11px&quot;&gt;%c4Description%&lt;/font&gt;&lt;/div&gt;" id="cbHOGmEnmN4e4WHKEx2--7">
          <mxCell style="rounded=1;whiteSpace=wrap;html=1;labelBackgroundColor=none;fillColor=#63BEF2;fontColor=#000000;align=center;arcSize=6;strokeColor=#2086C9;metaEdit=1;resizable=1;points=[[0.25,0,0],[0.5,0,0],[0.75,0,0],[1,0.25,0],[1,0.5,0],[1,0.75,0],[0.75,1,0],[0.5,1,0],[0.25,1,0],[0,0.75,0],[0,0.5,0],[0,0.25,0]];sketch=1;curveFitting=1;jiggle=2;shadow=1;" parent="1" vertex="1">
            <mxGeometry x="720" y="280" width="130" height="60" as="geometry" />
          </mxCell>
        </object>
        <object placeholders="1" c4Name="Outbox" c4Type="Container" c4Technology="MongoDB" c4Description="" label="&lt;font style=&quot;font-size: 16px&quot;&gt;&lt;b&gt;%c4Name%&lt;/b&gt;&lt;/font&gt;&lt;div&gt;[%c4Type%:&amp;nbsp;%c4Technology%]&lt;/div&gt;&lt;br&gt;&lt;div&gt;&lt;font style=&quot;font-size: 11px&quot;&gt;&lt;font&gt;%c4Description%&lt;/font&gt;&lt;/font&gt;&lt;/div&gt;" id="cbHOGmEnmN4e4WHKEx2--8">
          <mxCell style="shape=cylinder3;size=15;whiteSpace=wrap;html=1;boundedLbl=1;rounded=0;labelBackgroundColor=none;fillColor=#2d7b33;fontSize=12;fontColor=#000000;align=center;strokeColor=#253726;metaEdit=1;points=[[0.5,0,0],[1,0.25,0],[1,0.5,0],[1,0.75,0],[0.5,1,0],[0,0.75,0],[0,0.5,0],[0,0.25,0]];resizable=0;sketch=1;curveFitting=1;jiggle=2;" parent="1" vertex="1">
            <mxGeometry x="430" y="290" width="240" height="120" as="geometry" />
          </mxCell>
        </object>
        <object placeholders="1" c4Type="Relationship" id="cbHOGmEnmN4e4WHKEx2--9">
          <mxCell style="endArrow=blockThin;html=1;fontSize=10;fontColor=#404040;strokeWidth=3;endFill=1;strokeColor=#82b366;elbow=vertical;metaEdit=1;endSize=14;startSize=14;jumpStyle=arc;jumpSize=16;rounded=0;edgeStyle=orthogonalEdgeStyle;exitX=0.75;exitY=1;exitDx=0;exitDy=0;exitPerimeter=0;entryX=0.079;entryY=0.058;entryDx=0;entryDy=0;entryPerimeter=0;curved=1;sketch=1;curveFitting=1;jiggle=2;shadow=1;" parent="1" source="cbHOGmEnmN4e4WHKEx2--2" target="cbHOGmEnmN4e4WHKEx2--8" edge="1">
            <mxGeometry width="240" relative="1" as="geometry">
              <mxPoint x="360" y="260" as="sourcePoint" />
              <mxPoint x="600" y="260" as="targetPoint" />
            </mxGeometry>
          </mxCell>
        </object>
        <object placeholders="1" c4Type="Relationship" id="cbHOGmEnmN4e4WHKEx2--10">
          <mxCell style="endArrow=blockThin;html=1;fontSize=10;fontColor=#404040;strokeWidth=3;endFill=1;strokeColor=#6c8ebf;elbow=vertical;metaEdit=1;endSize=14;startSize=14;jumpStyle=arc;jumpSize=16;rounded=0;edgeStyle=orthogonalEdgeStyle;exitX=0.415;exitY=1.017;exitDx=0;exitDy=0;exitPerimeter=0;entryX=0.75;entryY=0;entryDx=0;entryDy=0;entryPerimeter=0;curved=1;sketch=1;curveFitting=1;jiggle=2;shadow=1;" parent="1" source="cbHOGmEnmN4e4WHKEx2--2" target="cbHOGmEnmN4e4WHKEx2--4" edge="1">
            <mxGeometry width="240" relative="1" as="geometry">
              <mxPoint x="288" y="240" as="sourcePoint" />
              <mxPoint x="459" y="307" as="targetPoint" />
            </mxGeometry>
          </mxCell>
        </object>
        <object placeholders="1" c4Type="Relationship" id="cbHOGmEnmN4e4WHKEx2--11">
          <mxCell style="endArrow=blockThin;html=1;fontSize=10;fontColor=#404040;strokeWidth=3;endFill=1;strokeColor=#82b366;elbow=vertical;metaEdit=1;endSize=14;startSize=14;jumpStyle=arc;jumpSize=16;rounded=0;edgeStyle=orthogonalEdgeStyle;exitX=0;exitY=0.5;exitDx=0;exitDy=0;exitPerimeter=0;curved=1;sketch=1;curveFitting=1;jiggle=2;shadow=1;" parent="1" source="cbHOGmEnmN4e4WHKEx2--5" target="cbHOGmEnmN4e4WHKEx2--8" edge="1">
            <mxGeometry width="240" relative="1" as="geometry">
              <mxPoint x="244" y="241" as="sourcePoint" />
              <mxPoint x="338" y="350" as="targetPoint" />
              <Array as="points">
                <mxPoint x="510" y="210" />
              </Array>
            </mxGeometry>
          </mxCell>
        </object>
        <object placeholders="1" c4Type="Relationship" id="cbHOGmEnmN4e4WHKEx2--12">
          <mxCell style="endArrow=blockThin;html=1;fontSize=10;fontColor=#404040;strokeWidth=3;endFill=1;strokeColor=#6c8ebf;elbow=vertical;metaEdit=1;endSize=14;startSize=14;jumpStyle=arc;jumpSize=16;rounded=0;edgeStyle=orthogonalEdgeStyle;exitX=1;exitY=0.5;exitDx=0;exitDy=0;exitPerimeter=0;curved=1;entryX=0.25;entryY=0;entryDx=0;entryDy=0;entryPerimeter=0;shadow=1;sketch=1;curveFitting=1;jiggle=2;" parent="1" source="cbHOGmEnmN4e4WHKEx2--5" target="cbHOGmEnmN4e4WHKEx2--7" edge="1">
            <mxGeometry width="240" relative="1" as="geometry">
              <mxPoint x="570" y="220" as="sourcePoint" />
              <mxPoint x="520" y="300" as="targetPoint" />
              <Array as="points">
                <mxPoint x="690" y="220" />
                <mxPoint x="753" y="220" />
                <mxPoint x="753" y="240" />
              </Array>
            </mxGeometry>
          </mxCell>
        </object>
        <object placeholders="1" c4Type="Relationship" id="cbHOGmEnmN4e4WHKEx2--13">
          <mxCell style="endArrow=blockThin;html=1;fontSize=10;fontColor=#404040;strokeWidth=3;endFill=1;strokeColor=#d79b00;elbow=vertical;metaEdit=1;endSize=14;startSize=14;jumpStyle=arc;jumpSize=16;rounded=0;edgeStyle=orthogonalEdgeStyle;exitX=0.4;exitY=1.004;exitDx=0;exitDy=0;exitPerimeter=0;entryX=0.046;entryY=0.967;entryDx=0;entryDy=0;entryPerimeter=0;curved=1;sketch=1;curveFitting=1;jiggle=2;shadow=1;" parent="1" source="cbHOGmEnmN4e4WHKEx2--1" target="cbHOGmEnmN4e4WHKEx2--2" edge="1">
            <mxGeometry width="240" relative="1" as="geometry">
              <mxPoint x="244" y="241" as="sourcePoint" />
              <mxPoint x="338" y="350" as="targetPoint" />
              <Array as="points">
                <mxPoint x="200" y="504" />
                <mxPoint x="200" y="355" />
                <mxPoint x="186" y="355" />
              </Array>
            </mxGeometry>
          </mxCell>
        </object>
        <object placeholders="1" c4Type="Relationship" id="cbHOGmEnmN4e4WHKEx2--14">
          <mxCell style="endArrow=blockThin;html=1;fontSize=10;fontColor=#404040;strokeWidth=3;endFill=1;strokeColor=#b85450;elbow=vertical;metaEdit=1;endSize=14;startSize=14;jumpStyle=arc;jumpSize=16;rounded=0;edgeStyle=orthogonalEdgeStyle;entryX=1.017;entryY=0.625;entryDx=0;entryDy=0;entryPerimeter=0;curved=1;exitX=0;exitY=0.75;exitDx=0;exitDy=0;exitPerimeter=0;sketch=1;curveFitting=1;jiggle=2;shadow=1;" parent="1" source="cbHOGmEnmN4e4WHKEx2--7" target="cbHOGmEnmN4e4WHKEx2--8" edge="1">
            <mxGeometry width="240" relative="1" as="geometry">
              <mxPoint x="700" y="510" as="sourcePoint" />
              <mxPoint x="196" y="238" as="targetPoint" />
              <Array as="points">
                <mxPoint x="720" y="390" />
                <mxPoint x="710" y="390" />
                <mxPoint x="710" y="365" />
              </Array>
            </mxGeometry>
          </mxCell>
        </object>
        <object placeholders="1" c4Type="Relationship" id="cbHOGmEnmN4e4WHKEx2--15">
          <mxCell style="endArrow=blockThin;html=1;fontSize=10;fontColor=#404040;strokeWidth=3;endFill=1;strokeColor=#6c8ebf;elbow=vertical;metaEdit=1;endSize=14;startSize=14;jumpStyle=arc;jumpSize=16;rounded=0;edgeStyle=orthogonalEdgeStyle;exitX=1;exitY=0.5;exitDx=0;exitDy=0;exitPerimeter=0;curved=1;shadow=1;sketch=1;curveFitting=1;jiggle=2;" parent="1" target="cbHOGmEnmN4e4WHKEx2--3" edge="1">
            <mxGeometry width="240" relative="1" as="geometry">
              <mxPoint x="800" y="340" as="sourcePoint" />
              <mxPoint x="863" y="410" as="targetPoint" />
              <Array as="points">
                <mxPoint x="800" y="350" />
                <mxPoint x="825" y="350" />
              </Array>
            </mxGeometry>
          </mxCell>
        </object>
        <object placeholders="1" c4Type="Relationship" id="cbHOGmEnmN4e4WHKEx2--16">
          <mxCell style="endArrow=blockThin;html=1;fontSize=10;fontColor=#404040;strokeWidth=3;endFill=1;strokeColor=#d79b00;elbow=vertical;metaEdit=1;endSize=14;startSize=14;jumpStyle=arc;jumpSize=16;rounded=0;edgeStyle=orthogonalEdgeStyle;entryX=0.5;entryY=1;entryDx=0;entryDy=0;entryPerimeter=0;curved=1;exitX=1.043;exitY=0.066;exitDx=0;exitDy=0;exitPerimeter=0;sketch=1;curveFitting=1;jiggle=2;shadow=1;" parent="1" source="cbHOGmEnmN4e4WHKEx2--1" target="cbHOGmEnmN4e4WHKEx2--3" edge="1">
            <mxGeometry width="240" relative="1" as="geometry">
              <mxPoint x="682" y="718" as="sourcePoint" />
              <mxPoint x="760" y="550" as="targetPoint" />
              <Array as="points">
                <mxPoint x="660" y="570" />
                <mxPoint x="825" y="570" />
              </Array>
            </mxGeometry>
          </mxCell>
        </object>
        <object placeholders="1" c4Type="Relationship" id="cbHOGmEnmN4e4WHKEx2--17">
          <mxCell style="endArrow=blockThin;html=1;fontSize=10;fontColor=#404040;strokeWidth=3;endFill=1;strokeColor=#d79b00;elbow=vertical;metaEdit=1;endSize=14;startSize=14;jumpStyle=arc;jumpSize=16;rounded=0;edgeStyle=orthogonalEdgeStyle;entryX=0.45;entryY=1.028;entryDx=0;entryDy=0;entryPerimeter=0;curved=1;exitX=0.69;exitY=-0.002;exitDx=0;exitDy=0;exitPerimeter=0;sketch=1;curveFitting=1;jiggle=2;shadow=1;" parent="1" source="cbHOGmEnmN4e4WHKEx2--1" target="cbHOGmEnmN4e4WHKEx2--7" edge="1">
            <mxGeometry width="240" relative="1" as="geometry">
              <mxPoint x="700" y="521" as="sourcePoint" />
              <mxPoint x="778" y="351" as="targetPoint" />
              <Array as="points">
                <mxPoint x="710" y="521" />
                <mxPoint x="710" y="420" />
                <mxPoint x="779" y="420" />
              </Array>
            </mxGeometry>
          </mxCell>
        </object>
        <object placeholders="1" c4Type="Relationship" id="cbHOGmEnmN4e4WHKEx2--18">
          <mxCell style="endArrow=blockThin;html=1;fontSize=10;fontColor=#404040;strokeWidth=3;endFill=1;strokeColor=#d79b00;elbow=vertical;metaEdit=1;endSize=14;startSize=14;jumpStyle=arc;jumpSize=16;rounded=0;edgeStyle=orthogonalEdgeStyle;entryX=0.75;entryY=1;entryDx=0;entryDy=0;entryPerimeter=0;curved=1;exitX=0.008;exitY=0.734;exitDx=0;exitDy=0;exitPerimeter=0;sketch=1;curveFitting=1;jiggle=2;shadow=1;" parent="1" source="cbHOGmEnmN4e4WHKEx2--1" target="cbHOGmEnmN4e4WHKEx2--4" edge="1">
            <mxGeometry width="240" relative="1" as="geometry">
              <mxPoint x="390" y="465" as="sourcePoint" />
              <mxPoint x="457" y="426" as="targetPoint" />
              <Array as="points">
                <mxPoint x="352" y="465" />
                <mxPoint x="370" y="465" />
                <mxPoint x="370" y="440" />
                <mxPoint x="327" y="440" />
              </Array>
            </mxGeometry>
          </mxCell>
        </object>
        <object placeholders="1" c4Type="Relationship" id="cbHOGmEnmN4e4WHKEx2--19">
          <mxCell style="endArrow=blockThin;html=1;fontSize=10;fontColor=#404040;strokeWidth=3;endFill=1;strokeColor=#b85450;elbow=vertical;metaEdit=1;endSize=14;startSize=14;jumpStyle=arc;jumpSize=16;rounded=0;edgeStyle=orthogonalEdgeStyle;exitX=0.992;exitY=0.133;exitDx=0;exitDy=0;exitPerimeter=0;curved=1;entryX=0.338;entryY=1.033;entryDx=0;entryDy=0;entryPerimeter=0;sketch=1;curveFitting=1;jiggle=2;shadow=1;" parent="1" source="cbHOGmEnmN4e4WHKEx2--4" target="cbHOGmEnmN4e4WHKEx2--8" edge="1">
            <mxGeometry width="240" relative="1" as="geometry">
              <mxPoint x="450" y="380" as="sourcePoint" />
              <mxPoint x="400" y="460" as="targetPoint" />
              <Array as="points">
                <mxPoint x="400" y="348" />
                <mxPoint x="400" y="450" />
                <mxPoint x="511" y="450" />
              </Array>
            </mxGeometry>
          </mxCell>
        </object>
        <object placeholders="1" c4Name="Service" c4Type="" c4Technology="C# background" c4Description="" label="&lt;font style=&quot;font-size: 16px&quot;&gt;&lt;b&gt;%c4Name%&lt;/b&gt;&lt;/font&gt;&lt;div&gt;[%c4Type%: %c4Technology%]&lt;/div&gt;&lt;br&gt;&lt;div&gt;&lt;font style=&quot;font-size: 11px&quot;&gt;%c4Description%&lt;/font&gt;&lt;/div&gt;" id="cbHOGmEnmN4e4WHKEx2--20">
          <mxCell style="rounded=1;whiteSpace=wrap;html=1;labelBackgroundColor=none;fillColor=#63BEF2;fontColor=#000000;align=center;arcSize=6;strokeColor=#2086C9;metaEdit=1;resizable=1;points=[[0.25,0,0],[0.5,0,0],[0.75,0,0],[1,0.25,0],[1,0.5,0],[1,0.75,0],[0.75,1,0],[0.5,1,0],[0.25,1,0],[0,0.75,0],[0,0.5,0],[0,0.25,0]];shadow=1;" parent="1" vertex="1">
            <mxGeometry x="160" y="706" width="130" height="60" as="geometry" />
          </mxCell>
        </object>
        <object placeholders="1" c4Name="Database" c4Type="ContainerScopeBoundary" c4Application="Container" label="&lt;font style=&quot;font-size: 16px&quot;&gt;&lt;b&gt;&lt;div style=&quot;text-align: left&quot;&gt;%c4Name%&lt;/div&gt;&lt;/b&gt;&lt;/font&gt;&lt;div style=&quot;text-align: left&quot;&gt;[%c4Application%]&lt;/div&gt;" id="cbHOGmEnmN4e4WHKEx2--21">
          <mxCell style="rounded=1;fontSize=11;whiteSpace=wrap;html=1;arcSize=20;fillColor=#a9bbaa;strokeColor=#666666;fontColor=#333333;labelBackgroundColor=none;align=left;verticalAlign=bottom;labelBorderColor=none;spacingTop=0;spacing=10;metaEdit=1;rotatable=0;perimeter=rectanglePerimeter;noLabel=0;labelPadding=0;allowArrows=0;connectable=0;expand=0;recursiveResize=0;editable=1;pointerEvents=0;absoluteArcSize=1;points=[[0.25,0,0],[0.5,0,0],[0.75,0,0],[1,0.25,0],[1,0.5,0],[1,0.75,0],[0.75,1,0],[0.5,1,0],[0.25,1,0],[0,0.75,0],[0,0.5,0],[0,0.25,0]];sketch=1;curveFitting=1;jiggle=2;" parent="1" vertex="1">
            <mxGeometry x="10" y="860" width="720" height="330" as="geometry" />
          </mxCell>
        </object>
        <object placeholders="1" c4Name="Transaction" c4Type="ContainerScopeBoundary" c4Application="Container" label="&lt;font style=&quot;font-size: 16px&quot;&gt;&lt;b&gt;&lt;div style=&quot;text-align: left&quot;&gt;%c4Name%&lt;/div&gt;&lt;/b&gt;&lt;/font&gt;&lt;div style=&quot;text-align: left&quot;&gt;[%c4Application%]&lt;/div&gt;" id="cbHOGmEnmN4e4WHKEx2--22">
          <mxCell style="rounded=1;fontSize=11;whiteSpace=wrap;html=1;arcSize=20;fillColor=#95bc98;strokeColor=#769378;labelBackgroundColor=none;align=left;verticalAlign=bottom;labelBorderColor=none;spacingTop=0;spacing=10;metaEdit=1;rotatable=0;perimeter=rectanglePerimeter;noLabel=0;labelPadding=0;allowArrows=0;connectable=0;expand=0;recursiveResize=0;editable=1;pointerEvents=0;absoluteArcSize=1;points=[[0.25,0,0],[0.5,0,0],[0.75,0,0],[1,0.25,0],[1,0.5,0],[1,0.75,0],[0.75,1,0],[0.5,1,0],[0.25,1,0],[0,0.75,0],[0,0.5,0],[0,0.25,0]];sketch=1;curveFitting=1;jiggle=2;" parent="1" vertex="1">
            <mxGeometry x="20" y="880" width="680" height="260" as="geometry" />
          </mxCell>
        </object>
        <object placeholders="1" c4Name="INSERT, UPDATE, DELETE" c4Type="ContainerScopeBoundary" c4Description="&#xa;" label="&lt;font style=&quot;font-size: 16px&quot;&gt;&lt;b&gt;&lt;div style=&quot;text-align: left&quot;&gt;%c4Name%&lt;/div&gt;&lt;/b&gt;&lt;/font&gt;&lt;div style=&quot;text-align: left&quot;&gt;%c4Description%&lt;/div&gt;" id="cbHOGmEnmN4e4WHKEx2--23">
          <mxCell style="text;html=1;strokeColor=none;fillColor=none;align=left;verticalAlign=top;whiteSpace=wrap;rounded=0;metaEdit=1;allowArrows=0;resizable=1;rotatable=0;connectable=0;recursiveResize=0;expand=0;pointerEvents=0;points=[[0.25,0,0],[0.5,0,0],[0.75,0,0],[1,0.25,0],[1,0.5,0],[1,0.75,0],[0.75,1,0],[0.5,1,0],[0.25,1,0],[0,0.75,0],[0,0.5,0],[0,0.25,0]];" parent="1" vertex="1">
            <mxGeometry x="60" y="910" width="260" height="40" as="geometry" />
          </mxCell>
        </object>
        <mxCell id="cbHOGmEnmN4e4WHKEx2--24" value="" style="shape=table;startSize=0;container=1;collapsible=0;childLayout=tableLayout;" parent="1" vertex="1">
          <mxGeometry x="70" y="1030" width="210" height="40" as="geometry" />
        </mxCell>
        <mxCell id="cbHOGmEnmN4e4WHKEx2--25" value="" style="shape=tableRow;horizontal=0;startSize=0;swimlaneHead=0;swimlaneBody=0;strokeColor=inherit;top=0;left=0;bottom=0;right=0;collapsible=0;dropTarget=0;fillColor=none;points=[[0,0.5],[1,0.5]];portConstraint=eastwest;" parent="cbHOGmEnmN4e4WHKEx2--24" vertex="1">
          <mxGeometry width="210" height="40" as="geometry" />
        </mxCell>
        <mxCell id="cbHOGmEnmN4e4WHKEx2--26" value="" style="shape=partialRectangle;html=1;whiteSpace=wrap;connectable=0;strokeColor=inherit;overflow=hidden;fillColor=none;top=0;left=0;bottom=0;right=0;pointerEvents=1;" parent="cbHOGmEnmN4e4WHKEx2--25" vertex="1">
          <mxGeometry width="105" height="40" as="geometry">
            <mxRectangle width="105" height="40" as="alternateBounds" />
          </mxGeometry>
        </mxCell>
        <mxCell id="cbHOGmEnmN4e4WHKEx2--27" value="" style="shape=partialRectangle;html=1;whiteSpace=wrap;connectable=0;strokeColor=inherit;overflow=hidden;fillColor=none;top=0;left=0;bottom=0;right=0;pointerEvents=1;" parent="cbHOGmEnmN4e4WHKEx2--25" vertex="1">
          <mxGeometry x="105" width="105" height="40" as="geometry">
            <mxRectangle width="105" height="40" as="alternateBounds" />
          </mxGeometry>
        </mxCell>
        <object placeholders="1" c4Name="OUTBOX table" c4Type="ContainerScopeBoundary" c4Description="&#xa;" label="&lt;font style=&quot;font-size: 16px&quot;&gt;&lt;b&gt;&lt;div style=&quot;&quot;&gt;%c4Name%&lt;/div&gt;&lt;/b&gt;&lt;/font&gt;&lt;div style=&quot;&quot;&gt;%c4Description%&lt;/div&gt;" id="cbHOGmEnmN4e4WHKEx2--28">
          <mxCell style="text;html=1;strokeColor=none;fillColor=none;align=center;verticalAlign=top;whiteSpace=wrap;rounded=0;metaEdit=1;allowArrows=0;resizable=1;rotatable=0;connectable=0;recursiveResize=0;expand=0;pointerEvents=0;points=[[0.25,0,0],[0.5,0,0],[0.75,0,0],[1,0.25,0],[1,0.5,0],[1,0.75,0],[0.75,1,0],[0.5,1,0],[0.25,1,0],[0,0.75,0],[0,0.5,0],[0,0.25,0]];" parent="1" vertex="1">
            <mxGeometry x="365" y="990" width="260" height="40" as="geometry" />
          </mxCell>
        </object>
        <mxCell id="cbHOGmEnmN4e4WHKEx2--29" value="" style="endArrow=classic;html=1;rounded=0;exitX=0.5;exitY=1;exitDx=0;exitDy=0;exitPerimeter=0;" parent="1" source="cbHOGmEnmN4e4WHKEx2--20" edge="1">
          <mxGeometry width="50" height="50" relative="1" as="geometry">
            <mxPoint x="430" y="780" as="sourcePoint" />
            <mxPoint x="130" y="1020" as="targetPoint" />
          </mxGeometry>
        </mxCell>
        <object placeholders="1" c4Name="INSERT" c4Type="ContainerScopeBoundary" c4Description="&#xa;" label="&lt;font style=&quot;font-size: 16px&quot;&gt;&lt;b&gt;&lt;div style=&quot;text-align: left&quot;&gt;%c4Name%&lt;/div&gt;&lt;/b&gt;&lt;/font&gt;&lt;div style=&quot;text-align: left&quot;&gt;%c4Description%&lt;/div&gt;" id="cbHOGmEnmN4e4WHKEx2--30">
          <mxCell style="text;html=1;strokeColor=none;fillColor=none;align=left;verticalAlign=top;whiteSpace=wrap;rounded=0;metaEdit=1;allowArrows=0;resizable=1;rotatable=0;connectable=0;recursiveResize=0;expand=0;pointerEvents=0;points=[[0.25,0,0],[0.5,0,0],[0.75,0,0],[1,0.25,0],[1,0.5,0],[1,0.75,0],[0.75,1,0],[0.5,1,0],[0.25,1,0],[0,0.75,0],[0,0.5,0],[0,0.25,0]];" parent="1" vertex="1">
            <mxGeometry x="410" y="910" width="100" height="40" as="geometry" />
          </mxCell>
        </object>
        <mxCell id="cbHOGmEnmN4e4WHKEx2--31" value="" style="shape=table;startSize=0;container=1;collapsible=0;childLayout=tableLayout;" parent="1" vertex="1">
          <mxGeometry x="370" y="1030" width="260" height="40" as="geometry" />
        </mxCell>
        <mxCell id="cbHOGmEnmN4e4WHKEx2--32" value="" style="shape=tableRow;horizontal=0;startSize=0;swimlaneHead=0;swimlaneBody=0;strokeColor=inherit;top=0;left=0;bottom=0;right=0;collapsible=0;dropTarget=0;fillColor=none;points=[[0,0.5],[1,0.5]];portConstraint=eastwest;" parent="cbHOGmEnmN4e4WHKEx2--31" vertex="1">
          <mxGeometry width="260" height="40" as="geometry" />
        </mxCell>
        <mxCell id="cbHOGmEnmN4e4WHKEx2--33" value="" style="shape=partialRectangle;html=1;whiteSpace=wrap;connectable=0;strokeColor=inherit;overflow=hidden;fillColor=none;top=0;left=0;bottom=0;right=0;pointerEvents=1;" parent="cbHOGmEnmN4e4WHKEx2--32" vertex="1">
          <mxGeometry width="87" height="40" as="geometry">
            <mxRectangle width="87" height="40" as="alternateBounds" />
          </mxGeometry>
        </mxCell>
        <mxCell id="cbHOGmEnmN4e4WHKEx2--34" value="" style="shape=partialRectangle;html=1;whiteSpace=wrap;connectable=0;strokeColor=inherit;overflow=hidden;fillColor=none;top=0;left=0;bottom=0;right=0;pointerEvents=1;" parent="cbHOGmEnmN4e4WHKEx2--32" vertex="1">
          <mxGeometry x="87" width="86" height="40" as="geometry">
            <mxRectangle width="86" height="40" as="alternateBounds" />
          </mxGeometry>
        </mxCell>
        <mxCell id="cbHOGmEnmN4e4WHKEx2--35" value="" style="shape=partialRectangle;html=1;whiteSpace=wrap;connectable=0;strokeColor=inherit;overflow=hidden;fillColor=none;top=0;left=0;bottom=0;right=0;pointerEvents=1;" parent="cbHOGmEnmN4e4WHKEx2--32" vertex="1">
          <mxGeometry x="173" width="87" height="40" as="geometry">
            <mxRectangle width="87" height="40" as="alternateBounds" />
          </mxGeometry>
        </mxCell>
        <object placeholders="1" c4Name="ORDER table" c4Type="ContainerScopeBoundary" c4Description="&#xa;" label="&lt;font style=&quot;font-size: 16px&quot;&gt;&lt;b&gt;&lt;div style=&quot;&quot;&gt;%c4Name%&lt;/div&gt;&lt;/b&gt;&lt;/font&gt;&lt;div style=&quot;&quot;&gt;%c4Description%&lt;/div&gt;" id="cbHOGmEnmN4e4WHKEx2--36">
          <mxCell style="text;html=1;strokeColor=none;fillColor=none;align=center;verticalAlign=top;whiteSpace=wrap;rounded=0;metaEdit=1;allowArrows=0;resizable=1;rotatable=0;connectable=0;recursiveResize=0;expand=0;pointerEvents=0;points=[[0.25,0,0],[0.5,0,0],[0.75,0,0],[1,0.25,0],[1,0.5,0],[1,0.75,0],[0.75,1,0],[0.5,1,0],[0.25,1,0],[0,0.75,0],[0,0.5,0],[0,0.25,0]];" parent="1" vertex="1">
            <mxGeometry x="70" y="990" width="260" height="40" as="geometry" />
          </mxCell>
        </object>
        <mxCell id="cbHOGmEnmN4e4WHKEx2--37" value="" style="endArrow=classic;html=1;rounded=0;exitX=0.794;exitY=1.046;exitDx=0;exitDy=0;exitPerimeter=0;" parent="1" source="cbHOGmEnmN4e4WHKEx2--20" target="cbHOGmEnmN4e4WHKEx2--32" edge="1">
          <mxGeometry width="50" height="50" relative="1" as="geometry">
            <mxPoint x="235" y="760" as="sourcePoint" />
            <mxPoint x="140" y="1030" as="targetPoint" />
          </mxGeometry>
        </mxCell>
        <mxCell id="cbHOGmEnmN4e4WHKEx2--39" value="1" style="ellipse;whiteSpace=wrap;html=1;aspect=fixed;fillColor=#000000;fontColor=#ffffff;fontSize=22;" parent="1" vertex="1">
          <mxGeometry x="600" y="860" width="50" height="50" as="geometry" />
        </mxCell>
        <object placeholders="1" c4Name="Message&#xa;Relay" c4Type="ContainerScopeBoundary" c4Application="Container" label="&lt;font style=&quot;font-size: 16px&quot;&gt;&lt;b&gt;&lt;div style=&quot;text-align: left&quot;&gt;%c4Name%&lt;/div&gt;&lt;/b&gt;&lt;/font&gt;&lt;div style=&quot;text-align: left&quot;&gt;[%c4Application%]&lt;/div&gt;" id="cbHOGmEnmN4e4WHKEx2--41">
          <mxCell style="rounded=1;fontSize=11;whiteSpace=wrap;html=1;arcSize=20;fillColor=#499dd4;strokeColor=#666666;fontColor=#333333;labelBackgroundColor=none;align=left;verticalAlign=bottom;labelBorderColor=none;spacingTop=0;spacing=10;metaEdit=1;rotatable=0;perimeter=rectanglePerimeter;noLabel=0;labelPadding=0;allowArrows=0;connectable=0;expand=0;recursiveResize=0;editable=1;pointerEvents=0;absoluteArcSize=1;points=[[0.25,0,0],[0.5,0,0],[0.75,0,0],[1,0.25,0],[1,0.5,0],[1,0.75,0],[0.75,1,0],[0.5,1,0],[0.25,1,0],[0,0.75,0],[0,0.5,0],[0,0.25,0]];sketch=1;curveFitting=1;jiggle=2;" parent="1" vertex="1">
            <mxGeometry x="900" y="880" width="130" height="270" as="geometry" />
          </mxCell>
        </object>
        <object placeholders="1" c4Name="Message&#xa;Broker" c4Type="ContainerScopeBoundary" c4Application="Container" label="&lt;font style=&quot;font-size: 16px&quot;&gt;&lt;b&gt;&lt;div style=&quot;text-align: left&quot;&gt;%c4Name%&lt;/div&gt;&lt;/b&gt;&lt;/font&gt;&lt;div style=&quot;text-align: left&quot;&gt;[%c4Application%]&lt;/div&gt;" id="cbHOGmEnmN4e4WHKEx2--42">
          <mxCell style="rounded=1;fontSize=11;whiteSpace=wrap;html=1;arcSize=20;fillColor=#65a9d5;strokeColor=#666666;fontColor=#333333;labelBackgroundColor=none;align=left;verticalAlign=bottom;labelBorderColor=none;spacingTop=0;spacing=10;metaEdit=1;rotatable=0;perimeter=rectanglePerimeter;noLabel=0;labelPadding=0;allowArrows=0;connectable=0;expand=0;recursiveResize=0;editable=1;pointerEvents=0;absoluteArcSize=1;points=[[0.25,0,0],[0.5,0,0],[0.75,0,0],[1,0.25,0],[1,0.5,0],[1,0.75,0],[0.75,1,0],[0.5,1,0],[0.25,1,0],[0,0.75,0],[0,0.5,0],[0,0.25,0]];sketch=1;curveFitting=1;jiggle=2;" parent="1" vertex="1">
            <mxGeometry x="1199" y="890" width="120" height="260" as="geometry" />
          </mxCell>
        </object>
        <mxCell id="cbHOGmEnmN4e4WHKEx2--44" value="2" style="ellipse;whiteSpace=wrap;html=1;aspect=fixed;fillColor=#000000;fontColor=#ffffff;fontSize=22;" parent="1" vertex="1">
          <mxGeometry x="730" y="985" width="50" height="50" as="geometry" />
        </mxCell>
        <mxCell id="cbHOGmEnmN4e4WHKEx2--45" value="3" style="ellipse;whiteSpace=wrap;html=1;aspect=fixed;fillColor=#000000;fontColor=#ffffff;fontSize=22;" parent="1" vertex="1">
          <mxGeometry x="1050" y="980" width="50" height="50" as="geometry" />
        </mxCell>
        <object placeholders="1" c4Type="Relationship" c4Description="Read OUTBOX&#xa;table" label="&lt;div style=&quot;text-align: left; font-size: 15px;&quot;&gt;&lt;div style=&quot;text-align: center; font-size: 15px;&quot;&gt;&lt;b style=&quot;font-size: 15px;&quot;&gt;%c4Description%&lt;/b&gt;&lt;/div&gt;&lt;/div&gt;" id="cbHOGmEnmN4e4WHKEx2--47">
          <mxCell style="endArrow=blockThin;html=1;fontSize=15;fontColor=#404040;strokeWidth=1;endFill=1;strokeColor=#828282;elbow=vertical;metaEdit=1;endSize=14;startSize=14;jumpStyle=arc;jumpSize=16;rounded=0;edgeStyle=orthogonalEdgeStyle;entryX=1.015;entryY=0.869;entryDx=0;entryDy=0;entryPerimeter=0;curved=1;" parent="1" target="cbHOGmEnmN4e4WHKEx2--32" edge="1">
            <mxGeometry x="-0.5017" y="-40" width="240" relative="1" as="geometry">
              <mxPoint x="900" y="1050" as="sourcePoint" />
              <mxPoint x="580" y="930" as="targetPoint" />
              <mxPoint as="offset" />
            </mxGeometry>
          </mxCell>
        </object>
        <object placeholders="1" c4Type="Relationship" c4Description="Publish" label="&lt;div style=&quot;text-align: left; font-size: 16px;&quot;&gt;&lt;div style=&quot;text-align: center; font-size: 16px;&quot;&gt;&lt;b style=&quot;font-size: 16px;&quot;&gt;%c4Description%&lt;/b&gt;&lt;/div&gt;&lt;/div&gt;" id="cbHOGmEnmN4e4WHKEx2--48">
          <mxCell style="endArrow=blockThin;html=1;fontSize=16;fontColor=#404040;strokeWidth=1;endFill=1;strokeColor=#828282;elbow=vertical;metaEdit=1;endSize=14;startSize=14;jumpStyle=arc;jumpSize=16;rounded=0;edgeStyle=orthogonalEdgeStyle;curved=1;" parent="1" edge="1">
            <mxGeometry x="0.2941" y="40" width="240" relative="1" as="geometry">
              <mxPoint x="1030" y="1060" as="sourcePoint" />
              <mxPoint x="1200" y="1060" as="targetPoint" />
              <mxPoint as="offset" />
            </mxGeometry>
          </mxCell>
        </object>
        <mxCell id="sRBXPEC6CnhFeX8Rd4L1-1" value="2" style="ellipse;whiteSpace=wrap;html=1;aspect=fixed;fillColor=#dae8fc;fontSize=22;strokeColor=#6c8ebf;sketch=1;curveFitting=1;jiggle=2;shadow=1;" parent="1" vertex="1">
          <mxGeometry x="220" y="280" width="50" height="50" as="geometry" />
        </mxCell>
        <mxCell id="sRBXPEC6CnhFeX8Rd4L1-8" value="2" style="ellipse;whiteSpace=wrap;html=1;aspect=fixed;fillColor=#dae8fc;fontSize=22;strokeColor=#6c8ebf;sketch=1;curveFitting=1;jiggle=2;shadow=1;" parent="1" vertex="1">
          <mxGeometry x="730" y="170" width="50" height="50" as="geometry" />
        </mxCell>
        <mxCell id="sRBXPEC6CnhFeX8Rd4L1-9" value="2" style="ellipse;whiteSpace=wrap;html=1;aspect=fixed;fillColor=#dae8fc;fontSize=22;strokeColor=#6c8ebf;sketch=1;curveFitting=1;jiggle=2;shadow=1;" parent="1" vertex="1">
          <mxGeometry x="850" y="360" width="50" height="50" as="geometry" />
        </mxCell>
        <mxCell id="sRBXPEC6CnhFeX8Rd4L1-10" value="1" style="ellipse;whiteSpace=wrap;html=1;aspect=fixed;fillColor=#d5e8d4;fontSize=22;strokeColor=#82b366;sketch=1;curveFitting=1;jiggle=2;shadow=1;" parent="1" vertex="1">
          <mxGeometry x="360" y="200" width="50" height="50" as="geometry" />
        </mxCell>
        <mxCell id="sRBXPEC6CnhFeX8Rd4L1-11" value="3" style="ellipse;whiteSpace=wrap;html=1;aspect=fixed;fillColor=#f8cecc;fontSize=22;strokeColor=#b85450;sketch=1;curveFitting=1;jiggle=2;shadow=1;" parent="1" vertex="1">
          <mxGeometry x="660" y="390" width="50" height="50" as="geometry" />
        </mxCell>
        <mxCell id="sRBXPEC6CnhFeX8Rd4L1-12" value="3" style="ellipse;whiteSpace=wrap;html=1;aspect=fixed;fillColor=#f8cecc;fontSize=22;strokeColor=#b85450;sketch=1;curveFitting=1;jiggle=2;shadow=1;" parent="1" vertex="1">
          <mxGeometry x="525" y="420" width="50" height="50" as="geometry" />
        </mxCell>
        <mxCell id="sRBXPEC6CnhFeX8Rd4L1-13" value="1" style="ellipse;whiteSpace=wrap;html=1;aspect=fixed;fillColor=#d5e8d4;fontSize=22;strokeColor=#82b366;sketch=1;curveFitting=1;jiggle=2;shadow=1;" parent="1" vertex="1">
          <mxGeometry x="475" y="170" width="50" height="50" as="geometry" />
        </mxCell>
        <mxCell id="sRBXPEC6CnhFeX8Rd4L1-16" value="4" style="ellipse;whiteSpace=wrap;html=1;aspect=fixed;fillColor=#ffe6cc;fontSize=22;strokeColor=#d79b00;sketch=1;curveFitting=1;jiggle=2;shadow=1;" parent="1" vertex="1">
          <mxGeometry x="206" y="425" width="50" height="50" as="geometry" />
        </mxCell>
        <mxCell id="sRBXPEC6CnhFeX8Rd4L1-17" value="4" style="ellipse;whiteSpace=wrap;html=1;aspect=fixed;fillColor=#ffe6cc;fontSize=22;strokeColor=#d79b00;sketch=1;curveFitting=1;jiggle=2;shadow=1;" parent="1" vertex="1">
          <mxGeometry x="705" y="510" width="50" height="50" as="geometry" />
        </mxCell>
        <object placeholders="1" c4Type="Relationship" id="sRBXPEC6CnhFeX8Rd4L1-21">
          <mxCell style="endArrow=blockThin;html=1;fontSize=10;fontColor=#404040;strokeWidth=3;endFill=1;strokeColor=#d79b00;elbow=vertical;metaEdit=1;endSize=14;startSize=14;jumpStyle=arc;jumpSize=16;rounded=0;edgeStyle=orthogonalEdgeStyle;curved=1;exitX=0.735;exitY=0.973;exitDx=0;exitDy=0;exitPerimeter=0;entryX=0.004;entryY=0.182;entryDx=0;entryDy=0;entryPerimeter=0;sketch=1;curveFitting=1;jiggle=2;shadow=1;" parent="1" source="cbHOGmEnmN4e4WHKEx2--8" target="cbHOGmEnmN4e4WHKEx2--1" edge="1">
            <mxGeometry width="240" relative="1" as="geometry">
              <mxPoint x="600" y="630" as="sourcePoint" />
              <mxPoint x="606" y="470" as="targetPoint" />
              <Array as="points" />
            </mxGeometry>
          </mxCell>
        </object>
        <mxCell id="RgLUPbMFcPm35V3ERX6u-1" value="OrderEngine" style="shape=umlLifeline;perimeter=lifelinePerimeter;whiteSpace=wrap;html=1;container=1;dropTarget=0;collapsible=0;recursiveResize=0;outlineConnect=0;portConstraint=eastwest;newEdgeStyle={&quot;curved&quot;:0,&quot;rounded&quot;:0};rounded=1;sketch=1;curveFitting=1;jiggle=2;shadow=1;fillColor=#63bef2;strokeColor=#6c8ebf;glass=0;" parent="1" vertex="1">
          <mxGeometry x="86" y="1260" width="100" height="460" as="geometry" />
        </mxCell>
        <mxCell id="RgLUPbMFcPm35V3ERX6u-5" value="" style="html=1;points=[[0,0,0,0,5],[0,1,0,0,-5],[1,0,0,0,5],[1,1,0,0,-5]];perimeter=orthogonalPerimeter;outlineConnect=0;targetShapes=umlLifeline;portConstraint=eastwest;newEdgeStyle={&quot;curved&quot;:0,&quot;rounded&quot;:0};rounded=1;sketch=1;curveFitting=1;jiggle=2;" parent="RgLUPbMFcPm35V3ERX6u-1" vertex="1">
          <mxGeometry x="45" y="60" width="10" height="160" as="geometry" />
        </mxCell>
        <mxCell id="RgLUPbMFcPm35V3ERX6u-14" value="" style="html=1;points=[[0,0,0,0,5],[0,1,0,0,-5],[1,0,0,0,5],[1,1,0,0,-5]];perimeter=orthogonalPerimeter;outlineConnect=0;targetShapes=umlLifeline;portConstraint=eastwest;newEdgeStyle={&quot;curved&quot;:0,&quot;rounded&quot;:0};rounded=1;sketch=1;curveFitting=1;jiggle=2;" parent="RgLUPbMFcPm35V3ERX6u-1" vertex="1">
          <mxGeometry x="45" y="240" width="10" height="140" as="geometry" />
        </mxCell>
        <mxCell id="J2wZCcpqfvK2SJkcsM0K-6" value="&lt;font style=&quot;font-size: 10px;&quot;&gt;Process &#39;new order&#39;&lt;/font&gt;&lt;div style=&quot;font-size: 10px;&quot;&gt;&lt;font style=&quot;font-size: 10px;&quot;&gt;command&lt;/font&gt;&lt;/div&gt;" style="html=1;verticalAlign=bottom;startArrow=oval;startFill=1;endArrow=block;startSize=8;curved=0;rounded=0;sketch=1;curveFitting=1;jiggle=2;fontStyle=2" parent="RgLUPbMFcPm35V3ERX6u-1" source="RgLUPbMFcPm35V3ERX6u-5" target="RgLUPbMFcPm35V3ERX6u-5" edge="1">
          <mxGeometry x="0.0595" y="50" width="60" relative="1" as="geometry">
            <mxPoint x="60.500000000000114" y="80" as="sourcePoint" />
            <mxPoint x="114" y="100" as="targetPoint" />
            <Array as="points">
              <mxPoint x="94" y="70" />
              <mxPoint x="94" y="100" />
              <mxPoint x="84" y="100" />
            </Array>
            <mxPoint as="offset" />
          </mxGeometry>
        </mxCell>
        <mxCell id="RgLUPbMFcPm35V3ERX6u-3" value="Matching" style="shape=umlLifeline;perimeter=lifelinePerimeter;whiteSpace=wrap;html=1;container=1;dropTarget=0;collapsible=0;recursiveResize=0;outlineConnect=0;portConstraint=eastwest;newEdgeStyle={&quot;curved&quot;:0,&quot;rounded&quot;:0};rounded=1;sketch=1;curveFitting=1;jiggle=2;shadow=1;fillColor=#63bef2;strokeColor=#2086c9;" parent="1" vertex="1">
          <mxGeometry x="489" y="1270" width="100" height="450" as="geometry" />
        </mxCell>
        <mxCell id="RgLUPbMFcPm35V3ERX6u-9" value="" style="html=1;points=[[0,0,0,0,5],[0,1,0,0,-5],[1,0,0,0,5],[1,1,0,0,-5]];perimeter=orthogonalPerimeter;outlineConnect=0;targetShapes=umlLifeline;portConstraint=eastwest;newEdgeStyle={&quot;curved&quot;:0,&quot;rounded&quot;:0};rounded=1;sketch=1;curveFitting=1;jiggle=2;" parent="RgLUPbMFcPm35V3ERX6u-3" vertex="1">
          <mxGeometry x="45" y="311" width="10" height="40" as="geometry" />
        </mxCell>
        <object placeholders="1" c4Name="Order" c4Type="Container" c4Technology="MongoDB" c4Description="Description of &#xa;storage outbox" label="&lt;font style=&quot;font-size: 9px;&quot;&gt;&lt;b style=&quot;font-size: 9px;&quot;&gt;%c4Name%&lt;/b&gt;&lt;/font&gt;&lt;div style=&quot;font-size: 9px;&quot;&gt;[%c4Type%:&amp;nbsp;%c4Technology%]&lt;/div&gt;&lt;br style=&quot;font-size: 9px;&quot;&gt;&lt;div style=&quot;font-size: 9px;&quot;&gt;&lt;font style=&quot;font-size: 9px;&quot;&gt;&lt;font style=&quot;font-size: 9px;&quot;&gt;%c4Description%&lt;/font&gt;&lt;/font&gt;&lt;/div&gt;" id="RgLUPbMFcPm35V3ERX6u-4">
          <mxCell style="shape=cylinder3;size=15;whiteSpace=wrap;html=1;boundedLbl=1;rounded=0;labelBackgroundColor=none;fillColor=#d5e8d4;fontSize=9;fontColor=#000000;align=center;strokeColor=#82b366;metaEdit=1;points=[[0.5,0,0],[1,0.25,0],[1,0.5,0],[1,0.75,0],[0.5,1,0],[0,0.75,0],[0,0.5,0],[0,0.25,0]];resizable=1;sketch=1;curveFitting=1;jiggle=2;" parent="1" vertex="1">
            <mxGeometry x="276" y="1237" width="130" height="70" as="geometry" />
          </mxCell>
        </object>
        <mxCell id="RgLUPbMFcPm35V3ERX6u-10" value="begin transaction" style="html=1;verticalAlign=bottom;startArrow=oval;startFill=1;endArrow=block;startSize=8;curved=0;rounded=0;sketch=1;curveFitting=1;jiggle=2;fontStyle=2" parent="1" edge="1">
          <mxGeometry width="60" relative="1" as="geometry">
            <mxPoint x="140.0000000000001" y="1380" as="sourcePoint" />
            <mxPoint x="339.5" y="1380" as="targetPoint" />
          </mxGeometry>
        </mxCell>
        <mxCell id="RgLUPbMFcPm35V3ERX6u-11" value="Insert Order" style="html=1;verticalAlign=bottom;startArrow=oval;startFill=1;endArrow=block;startSize=8;curved=0;rounded=0;sketch=1;curveFitting=1;jiggle=2;" parent="1" edge="1">
          <mxGeometry width="60" relative="1" as="geometry">
            <mxPoint x="139.0000000000001" y="1420" as="sourcePoint" />
            <mxPoint x="333" y="1420" as="targetPoint" />
          </mxGeometry>
        </mxCell>
        <mxCell id="RgLUPbMFcPm35V3ERX6u-12" value="&lt;font style=&quot;font-size: 9px;&quot;&gt;Insert order created message&lt;/font&gt;&lt;div style=&quot;font-size: 9px;&quot;&gt;&lt;font style=&quot;font-size: 9px;&quot;&gt;in outbox collection&lt;/font&gt;&lt;/div&gt;" style="html=1;verticalAlign=bottom;startArrow=oval;startFill=1;endArrow=block;startSize=8;curved=0;rounded=0;fontSize=9;sketch=1;curveFitting=1;jiggle=2;fontStyle=0" parent="1" source="RgLUPbMFcPm35V3ERX6u-8" edge="1">
          <mxGeometry x="1" y="97" width="60" relative="1" as="geometry">
            <mxPoint x="139.0000000000001" y="1460" as="sourcePoint" />
            <mxPoint x="333" y="1460" as="targetPoint" />
            <mxPoint x="-97" y="-97" as="offset" />
          </mxGeometry>
        </mxCell>
        <mxCell id="RgLUPbMFcPm35V3ERX6u-13" value="Commit" style="html=1;verticalAlign=bottom;startArrow=oval;startFill=1;endArrow=block;startSize=8;curved=0;rounded=0;fontStyle=2;sketch=1;curveFitting=1;jiggle=2;" parent="1" edge="1">
          <mxGeometry width="60" relative="1" as="geometry">
            <mxPoint x="139.0000000000001" y="1499.63" as="sourcePoint" />
            <mxPoint x="333" y="1499.63" as="targetPoint" />
          </mxGeometry>
        </mxCell>
        <mxCell id="RgLUPbMFcPm35V3ERX6u-17" value="" style="html=1;verticalAlign=bottom;startArrow=oval;startFill=1;endArrow=block;startSize=8;curved=0;rounded=0;fontStyle=2;sketch=1;curveFitting=1;jiggle=2;" parent="1" source="RgLUPbMFcPm35V3ERX6u-16" edge="1">
          <mxGeometry width="60" relative="1" as="geometry">
            <mxPoint x="146.0000000000001" y="1560" as="sourcePoint" />
            <mxPoint x="340" y="1560" as="targetPoint" />
          </mxGeometry>
        </mxCell>
        <mxCell id="RgLUPbMFcPm35V3ERX6u-19" value="not sent messages" style="html=1;verticalAlign=bottom;endArrow=open;dashed=1;endSize=8;curved=0;rounded=0;entryX=0.5;entryY=0.545;entryDx=0;entryDy=0;entryPerimeter=0;" parent="1" edge="1">
          <mxGeometry relative="1" as="geometry">
            <mxPoint x="335.5" y="1589.9999999999998" as="sourcePoint" />
            <mxPoint x="136.5000000000001" y="1589.9999999999998" as="targetPoint" />
          </mxGeometry>
        </mxCell>
        <mxCell id="RgLUPbMFcPm35V3ERX6u-20" value="" style="html=1;verticalAlign=bottom;startArrow=oval;startFill=1;endArrow=block;startSize=8;curved=0;rounded=0;fontStyle=2;sketch=1;curveFitting=1;jiggle=2;" parent="1" target="RgLUPbMFcPm35V3ERX6u-9" edge="1">
          <mxGeometry width="60" relative="1" as="geometry">
            <mxPoint x="145.5000000000001" y="1620" as="sourcePoint" />
            <mxPoint x="516" y="1620" as="targetPoint" />
          </mxGeometry>
        </mxCell>
        <mxCell id="RgLUPbMFcPm35V3ERX6u-21" value="publish message" style="edgeLabel;html=1;align=center;verticalAlign=middle;resizable=0;points=[];" parent="RgLUPbMFcPm35V3ERX6u-20" vertex="1" connectable="0">
          <mxGeometry x="-0.2654" y="4" relative="1" as="geometry">
            <mxPoint x="19" y="-6" as="offset" />
          </mxGeometry>
        </mxCell>
        <mxCell id="RgLUPbMFcPm35V3ERX6u-23" value="" style="html=1;verticalAlign=bottom;startArrow=oval;startFill=1;endArrow=block;startSize=8;curved=0;rounded=0;fontStyle=2;sketch=1;curveFitting=1;jiggle=2;" parent="1" source="RgLUPbMFcPm35V3ERX6u-22" edge="1">
          <mxGeometry width="60" relative="1" as="geometry">
            <mxPoint x="141.0000000000001" y="1659" as="sourcePoint" />
            <mxPoint x="340" y="1659" as="targetPoint" />
          </mxGeometry>
        </mxCell>
        <mxCell id="RgLUPbMFcPm35V3ERX6u-26" value="" style="html=1;verticalAlign=bottom;startArrow=oval;startFill=1;endArrow=block;startSize=8;curved=0;rounded=0;fontSize=9;sketch=1;curveFitting=1;jiggle=2;fontStyle=0" parent="1" target="RgLUPbMFcPm35V3ERX6u-8" edge="1">
          <mxGeometry width="60" relative="1" as="geometry">
            <mxPoint x="139.0000000000001" y="1460" as="sourcePoint" />
            <mxPoint x="333" y="1460" as="targetPoint" />
          </mxGeometry>
        </mxCell>
        <mxCell id="RgLUPbMFcPm35V3ERX6u-27" value="" style="html=1;verticalAlign=bottom;startArrow=oval;startFill=1;endArrow=block;startSize=8;curved=0;rounded=0;fontStyle=2;sketch=1;curveFitting=1;jiggle=2;" parent="1" target="RgLUPbMFcPm35V3ERX6u-16" edge="1">
          <mxGeometry width="60" relative="1" as="geometry">
            <mxPoint x="146.0000000000001" y="1560" as="sourcePoint" />
            <mxPoint x="340" y="1560" as="targetPoint" />
          </mxGeometry>
        </mxCell>
        <mxCell id="RgLUPbMFcPm35V3ERX6u-28" value="get pending messages" style="edgeLabel;html=1;align=center;verticalAlign=middle;resizable=0;points=[];" parent="RgLUPbMFcPm35V3ERX6u-27" vertex="1" connectable="0">
          <mxGeometry x="-0.2654" y="4" relative="1" as="geometry">
            <mxPoint x="19" y="-6" as="offset" />
          </mxGeometry>
        </mxCell>
        <mxCell id="RgLUPbMFcPm35V3ERX6u-29" value="" style="html=1;verticalAlign=bottom;startArrow=oval;startFill=1;endArrow=block;startSize=8;curved=0;rounded=0;fontStyle=2;sketch=1;curveFitting=1;jiggle=2;" parent="1" target="RgLUPbMFcPm35V3ERX6u-22" edge="1">
          <mxGeometry width="60" relative="1" as="geometry">
            <mxPoint x="141.0000000000001" y="1659" as="sourcePoint" />
            <mxPoint x="340" y="1659" as="targetPoint" />
          </mxGeometry>
        </mxCell>
        <mxCell id="RgLUPbMFcPm35V3ERX6u-30" value="remove message&lt;div style=&quot;font-size: 8px;&quot;&gt;from outbox&lt;/div&gt;" style="edgeLabel;html=1;align=center;verticalAlign=middle;resizable=0;points=[];fontSize=8;" parent="RgLUPbMFcPm35V3ERX6u-29" vertex="1" connectable="0">
          <mxGeometry x="-0.2654" y="4" relative="1" as="geometry">
            <mxPoint x="22" y="-15" as="offset" />
          </mxGeometry>
        </mxCell>
        <mxCell id="RgLUPbMFcPm35V3ERX6u-31" value="" style="endArrow=none;dashed=1;html=1;dashPattern=1 3;strokeWidth=2;rounded=0;entryX=0.5;entryY=1;entryDx=0;entryDy=0;entryPerimeter=0;strokeColor=#3892cd;" parent="1" source="RgLUPbMFcPm35V3ERX6u-8" target="RgLUPbMFcPm35V3ERX6u-4" edge="1">
          <mxGeometry width="50" height="50" relative="1" as="geometry">
            <mxPoint x="346" y="1690" as="sourcePoint" />
            <mxPoint x="356" y="1440" as="targetPoint" />
          </mxGeometry>
        </mxCell>
        <mxCell id="RgLUPbMFcPm35V3ERX6u-32" value="" style="endArrow=none;dashed=1;html=1;dashPattern=1 3;strokeWidth=2;rounded=0;entryX=0.5;entryY=1;entryDx=0;entryDy=0;entryPerimeter=0;strokeColor=#3892cd;" parent="1" source="RgLUPbMFcPm35V3ERX6u-16" target="RgLUPbMFcPm35V3ERX6u-8" edge="1">
          <mxGeometry width="50" height="50" relative="1" as="geometry">
            <mxPoint x="346" y="1690" as="sourcePoint" />
            <mxPoint x="341" y="1350" as="targetPoint" />
          </mxGeometry>
        </mxCell>
        <mxCell id="RgLUPbMFcPm35V3ERX6u-8" value="" style="html=1;points=[[0,0,0,0,5],[0,1,0,0,-5],[1,0,0,0,5],[1,1,0,0,-5]];perimeter=orthogonalPerimeter;outlineConnect=0;targetShapes=umlLifeline;portConstraint=eastwest;newEdgeStyle={&quot;curved&quot;:0,&quot;rounded&quot;:0};rounded=1;sketch=1;curveFitting=1;jiggle=2;" parent="1" vertex="1">
          <mxGeometry x="336" y="1370" width="10" height="140" as="geometry" />
        </mxCell>
        <mxCell id="RgLUPbMFcPm35V3ERX6u-33" value="" style="endArrow=none;dashed=1;html=1;dashPattern=1 3;strokeWidth=2;rounded=0;entryX=0.5;entryY=1;entryDx=0;entryDy=0;entryPerimeter=0;strokeColor=#3892cd;" parent="1" source="RgLUPbMFcPm35V3ERX6u-22" target="RgLUPbMFcPm35V3ERX6u-16" edge="1">
          <mxGeometry width="50" height="50" relative="1" as="geometry">
            <mxPoint x="346" y="1690" as="sourcePoint" />
            <mxPoint x="341" y="1510" as="targetPoint" />
          </mxGeometry>
        </mxCell>
        <mxCell id="RgLUPbMFcPm35V3ERX6u-16" value="" style="html=1;points=[[0,0,0,0,5],[0,1,0,0,-5],[1,0,0,0,5],[1,1,0,0,-5]];perimeter=orthogonalPerimeter;outlineConnect=0;targetShapes=umlLifeline;portConstraint=eastwest;newEdgeStyle={&quot;curved&quot;:0,&quot;rounded&quot;:0};rounded=1;sketch=1;curveFitting=1;jiggle=2;" parent="1" vertex="1">
          <mxGeometry x="336" y="1530" width="10" height="60" as="geometry" />
        </mxCell>
        <mxCell id="RgLUPbMFcPm35V3ERX6u-34" value="" style="endArrow=none;dashed=1;html=1;dashPattern=1 3;strokeWidth=2;rounded=0;entryX=0.5;entryY=1;entryDx=0;entryDy=0;entryPerimeter=0;strokeColor=#2086c9;" parent="1" target="RgLUPbMFcPm35V3ERX6u-22" edge="1">
          <mxGeometry width="50" height="50" relative="1" as="geometry">
            <mxPoint x="341" y="1730" as="sourcePoint" />
            <mxPoint x="341" y="1590" as="targetPoint" />
          </mxGeometry>
        </mxCell>
        <mxCell id="RgLUPbMFcPm35V3ERX6u-22" value="" style="html=1;points=[[0,0,0,0,5],[0,1,0,0,-5],[1,0,0,0,5],[1,1,0,0,-5]];perimeter=orthogonalPerimeter;outlineConnect=0;targetShapes=umlLifeline;portConstraint=eastwest;newEdgeStyle={&quot;curved&quot;:0,&quot;rounded&quot;:0};rounded=1;sketch=1;curveFitting=1;jiggle=2;" parent="1" vertex="1">
          <mxGeometry x="336" y="1630" width="10" height="30" as="geometry" />
        </mxCell>
        <mxCell id="p6Y60VUHbfP7wd-aXwZV-2" value="OrderEngine" style="shape=umlLifeline;perimeter=lifelinePerimeter;whiteSpace=wrap;html=1;container=1;dropTarget=0;collapsible=0;recursiveResize=0;outlineConnect=0;portConstraint=eastwest;newEdgeStyle={&quot;curved&quot;:0,&quot;rounded&quot;:0};rounded=1;sketch=1;curveFitting=1;jiggle=2;shadow=1;fillColor=#63bef2;strokeColor=#6c8ebf;glass=0;" parent="1" vertex="1">
          <mxGeometry x="830" y="1500" width="100" height="620" as="geometry" />
        </mxCell>
        <mxCell id="J2wZCcpqfvK2SJkcsM0K-7" value="&lt;font style=&quot;font-size: 10px;&quot;&gt;Process &#39;new order&#39;&lt;/font&gt;&lt;div style=&quot;font-size: 10px;&quot;&gt;&lt;font style=&quot;font-size: 10px;&quot;&gt;command&lt;/font&gt;&lt;/div&gt;" style="html=1;verticalAlign=bottom;startArrow=oval;startFill=1;endArrow=block;startSize=8;curved=0;rounded=0;sketch=1;curveFitting=1;jiggle=2;fontStyle=2" parent="p6Y60VUHbfP7wd-aXwZV-2" source="p6Y60VUHbfP7wd-aXwZV-3" target="p6Y60VUHbfP7wd-aXwZV-3" edge="1">
          <mxGeometry x="-0.3061" y="22" width="60" relative="1" as="geometry">
            <mxPoint x="60" y="95" as="sourcePoint" />
            <mxPoint x="60" y="125" as="targetPoint" />
            <Array as="points">
              <mxPoint x="89" y="95" />
              <mxPoint x="89" y="125" />
            </Array>
            <mxPoint x="-1" y="-5" as="offset" />
          </mxGeometry>
        </mxCell>
        <mxCell id="p6Y60VUHbfP7wd-aXwZV-3" value="" style="html=1;points=[[0,0,0,0,5],[0,1,0,0,-5],[1,0,0,0,5],[1,1,0,0,-5]];perimeter=orthogonalPerimeter;outlineConnect=0;targetShapes=umlLifeline;portConstraint=eastwest;newEdgeStyle={&quot;curved&quot;:0,&quot;rounded&quot;:0};rounded=1;sketch=1;curveFitting=1;jiggle=2;" parent="p6Y60VUHbfP7wd-aXwZV-2" vertex="1">
          <mxGeometry x="45" y="80" width="10" height="160" as="geometry" />
        </mxCell>
        <mxCell id="p6Y60VUHbfP7wd-aXwZV-4" value="" style="html=1;points=[[0,0,0,0,5],[0,1,0,0,-5],[1,0,0,0,5],[1,1,0,0,-5]];perimeter=orthogonalPerimeter;outlineConnect=0;targetShapes=umlLifeline;portConstraint=eastwest;newEdgeStyle={&quot;curved&quot;:0,&quot;rounded&quot;:0};rounded=1;sketch=1;curveFitting=1;jiggle=2;" parent="p6Y60VUHbfP7wd-aXwZV-2" vertex="1">
          <mxGeometry x="45" y="240" width="10" height="140" as="geometry" />
        </mxCell>
        <mxCell id="p6Y60VUHbfP7wd-aXwZV-5" value="Matching&amp;nbsp;&lt;div&gt;Engine&lt;/div&gt;" style="shape=umlLifeline;perimeter=lifelinePerimeter;whiteSpace=wrap;html=1;container=1;dropTarget=0;collapsible=0;recursiveResize=0;outlineConnect=0;portConstraint=eastwest;newEdgeStyle={&quot;curved&quot;:0,&quot;rounded&quot;:0};rounded=1;sketch=1;curveFitting=1;jiggle=2;shadow=1;fillColor=#63bef2;strokeColor=#2086c9;" parent="1" vertex="1">
          <mxGeometry x="1405" y="1500" width="100" height="620" as="geometry" />
        </mxCell>
        <mxCell id="p6Y60VUHbfP7wd-aXwZV-6" value="" style="html=1;points=[[0,0,0,0,5],[0,1,0,0,-5],[1,0,0,0,5],[1,1,0,0,-5]];perimeter=orthogonalPerimeter;outlineConnect=0;targetShapes=umlLifeline;portConstraint=eastwest;newEdgeStyle={&quot;curved&quot;:0,&quot;rounded&quot;:0};rounded=1;sketch=1;curveFitting=1;jiggle=2;" parent="p6Y60VUHbfP7wd-aXwZV-5" vertex="1">
          <mxGeometry x="45" y="288" width="10" height="132" as="geometry" />
        </mxCell>
        <mxCell id="p6Y60VUHbfP7wd-aXwZV-29" value="" style="html=1;points=[[0,0,0,0,5],[0,1,0,0,-5],[1,0,0,0,5],[1,1,0,0,-5]];perimeter=orthogonalPerimeter;outlineConnect=0;targetShapes=umlLifeline;portConstraint=eastwest;newEdgeStyle={&quot;curved&quot;:0,&quot;rounded&quot;:0};rounded=1;sketch=1;curveFitting=1;jiggle=2;" parent="p6Y60VUHbfP7wd-aXwZV-5" vertex="1">
          <mxGeometry x="45" y="472" width="10" height="120" as="geometry" />
        </mxCell>
        <object placeholders="1" c4Name="Order/&#xa;Outbox" c4Type="Container" c4Technology="MongoDB" c4Description="Description of &#xa;storage outbox" label="&lt;font style=&quot;font-size: 8px;&quot;&gt;&lt;b style=&quot;font-size: 8px;&quot;&gt;%c4Name%&lt;/b&gt;&lt;/font&gt;&lt;div style=&quot;font-size: 8px;&quot;&gt;[%c4Type%:&amp;nbsp;%c4Technology%]&lt;/div&gt;&lt;br style=&quot;font-size: 8px;&quot;&gt;&lt;div style=&quot;font-size: 8px;&quot;&gt;&lt;font style=&quot;font-size: 8px;&quot;&gt;&lt;font style=&quot;font-size: 8px;&quot;&gt;%c4Description%&lt;/font&gt;&lt;/font&gt;&lt;/div&gt;" id="p6Y60VUHbfP7wd-aXwZV-7">
          <mxCell style="shape=cylinder3;size=15;whiteSpace=wrap;html=1;boundedLbl=1;rounded=0;labelBackgroundColor=none;fillColor=#d5e8d4;fontSize=8;fontColor=#000000;align=center;strokeColor=#82b366;metaEdit=1;points=[[0.5,0,0],[1,0.25,0],[1,0.5,0],[1,0.75,0],[0.5,1,0],[0,0.75,0],[0,0.5,0],[0,0.25,0]];resizable=1;sketch=1;curveFitting=1;jiggle=2;verticalAlign=bottom;" parent="1" vertex="1">
            <mxGeometry x="1030" y="1500" width="100" height="55" as="geometry" />
          </mxCell>
        </object>
        <mxCell id="p6Y60VUHbfP7wd-aXwZV-8" value="begin transaction" style="html=1;verticalAlign=bottom;startArrow=oval;startFill=1;endArrow=block;startSize=8;curved=0;rounded=0;sketch=1;curveFitting=1;jiggle=2;fontStyle=2" parent="1" edge="1">
          <mxGeometry width="60" relative="1" as="geometry">
            <mxPoint x="884.0000000000001" y="1650" as="sourcePoint" />
            <mxPoint x="1083.5" y="1650" as="targetPoint" />
          </mxGeometry>
        </mxCell>
        <mxCell id="p6Y60VUHbfP7wd-aXwZV-9" value="Insert Order" style="html=1;verticalAlign=bottom;startArrow=oval;startFill=1;endArrow=block;startSize=8;curved=0;rounded=0;sketch=1;curveFitting=1;jiggle=2;" parent="1" edge="1">
          <mxGeometry width="60" relative="1" as="geometry">
            <mxPoint x="883.0000000000001" y="1690" as="sourcePoint" />
            <mxPoint x="1077" y="1690" as="targetPoint" />
          </mxGeometry>
        </mxCell>
        <mxCell id="p6Y60VUHbfP7wd-aXwZV-10" value="&lt;font style=&quot;font-size: 9px;&quot;&gt;Insert order created message&lt;/font&gt;&lt;div style=&quot;font-size: 9px;&quot;&gt;&lt;font style=&quot;font-size: 9px;&quot;&gt;in outbox collection&lt;/font&gt;&lt;/div&gt;" style="html=1;verticalAlign=bottom;startArrow=oval;startFill=1;endArrow=block;startSize=8;curved=0;rounded=0;fontSize=9;sketch=1;curveFitting=1;jiggle=2;fontStyle=0" parent="1" edge="1">
          <mxGeometry x="0.0769" y="1" width="60" relative="1" as="geometry">
            <mxPoint x="885" y="1730.9999999999995" as="sourcePoint" />
            <mxPoint x="1080" y="1730.9999999999995" as="targetPoint" />
            <mxPoint as="offset" />
          </mxGeometry>
        </mxCell>
        <mxCell id="p6Y60VUHbfP7wd-aXwZV-11" value="Commit" style="html=1;verticalAlign=bottom;startArrow=oval;startFill=1;endArrow=block;startSize=8;curved=0;rounded=0;fontStyle=2;sketch=1;curveFitting=1;jiggle=2;" parent="1" edge="1">
          <mxGeometry width="60" relative="1" as="geometry">
            <mxPoint x="883.0000000000001" y="1769.63" as="sourcePoint" />
            <mxPoint x="1077" y="1769.63" as="targetPoint" />
          </mxGeometry>
        </mxCell>
        <mxCell id="p6Y60VUHbfP7wd-aXwZV-13" value="Verify if message&lt;div style=&quot;font-size: 8px;&quot;&gt;is in outbox&lt;/div&gt;" style="html=1;verticalAlign=bottom;endArrow=open;dashed=1;endSize=8;curved=0;rounded=0;fontSize=8;labelBackgroundColor=none;fontStyle=2" parent="1" edge="1">
          <mxGeometry x="-0.4444" y="24" relative="1" as="geometry">
            <mxPoint x="1450" y="2008" as="sourcePoint" />
            <mxPoint x="1090" y="2008" as="targetPoint" />
            <mxPoint as="offset" />
          </mxGeometry>
        </mxCell>
        <mxCell id="p6Y60VUHbfP7wd-aXwZV-14" value="" style="html=1;verticalAlign=bottom;startArrow=oval;startFill=1;endArrow=block;startSize=8;curved=0;rounded=0;fontStyle=2;sketch=1;curveFitting=1;jiggle=2;" parent="1" edge="1">
          <mxGeometry width="60" relative="1" as="geometry">
            <mxPoint x="890.0000000000001" y="1801" as="sourcePoint" />
            <mxPoint x="1450" y="1801" as="targetPoint" />
          </mxGeometry>
        </mxCell>
        <mxCell id="p6Y60VUHbfP7wd-aXwZV-15" value="publish message &lt;i&gt;[ZeroMQ]&lt;/i&gt;" style="edgeLabel;html=1;align=center;verticalAlign=middle;resizable=0;points=[];" parent="p6Y60VUHbfP7wd-aXwZV-14" vertex="1" connectable="0">
          <mxGeometry x="-0.2654" y="4" relative="1" as="geometry">
            <mxPoint x="19" y="-6" as="offset" />
          </mxGeometry>
        </mxCell>
        <mxCell id="p6Y60VUHbfP7wd-aXwZV-22" value="" style="endArrow=none;dashed=1;html=1;dashPattern=1 3;strokeWidth=2;rounded=0;entryX=0.5;entryY=1;entryDx=0;entryDy=0;entryPerimeter=0;strokeColor=#3892cd;" parent="1" source="p6Y60VUHbfP7wd-aXwZV-24" target="p6Y60VUHbfP7wd-aXwZV-7" edge="1">
          <mxGeometry width="50" height="50" relative="1" as="geometry">
            <mxPoint x="1090" y="1960" as="sourcePoint" />
            <mxPoint x="1100" y="1710" as="targetPoint" />
          </mxGeometry>
        </mxCell>
        <mxCell id="p6Y60VUHbfP7wd-aXwZV-23" value="" style="endArrow=none;dashed=1;html=1;dashPattern=1 3;strokeWidth=2;rounded=0;entryX=0.5;entryY=1;entryDx=0;entryDy=0;entryPerimeter=0;strokeColor=#3892cd;" parent="1" source="p6Y60VUHbfP7wd-aXwZV-26" target="p6Y60VUHbfP7wd-aXwZV-24" edge="1">
          <mxGeometry width="50" height="50" relative="1" as="geometry">
            <mxPoint x="1090" y="1960" as="sourcePoint" />
            <mxPoint x="1085" y="1620" as="targetPoint" />
          </mxGeometry>
        </mxCell>
        <mxCell id="p6Y60VUHbfP7wd-aXwZV-24" value="" style="html=1;points=[[0,0,0,0,5],[0,1,0,0,-5],[1,0,0,0,5],[1,1,0,0,-5]];perimeter=orthogonalPerimeter;outlineConnect=0;targetShapes=umlLifeline;portConstraint=eastwest;newEdgeStyle={&quot;curved&quot;:0,&quot;rounded&quot;:0};rounded=1;sketch=1;curveFitting=1;jiggle=2;" parent="1" vertex="1">
          <mxGeometry x="1080" y="1640" width="10" height="130" as="geometry" />
        </mxCell>
        <mxCell id="p6Y60VUHbfP7wd-aXwZV-25" value="" style="endArrow=none;dashed=1;html=1;dashPattern=1 3;strokeWidth=2;rounded=0;entryX=0.5;entryY=1;entryDx=0;entryDy=0;entryPerimeter=0;strokeColor=#3892cd;" parent="1" target="p6Y60VUHbfP7wd-aXwZV-26" edge="1">
          <mxGeometry width="50" height="50" relative="1" as="geometry">
            <mxPoint x="1085" y="1950" as="sourcePoint" />
            <mxPoint x="1085" y="1780" as="targetPoint" />
          </mxGeometry>
        </mxCell>
        <mxCell id="p6Y60VUHbfP7wd-aXwZV-26" value="" style="html=1;points=[[0,0,0,0,5],[0,1,0,0,-5],[1,0,0,0,5],[1,1,0,0,-5]];perimeter=orthogonalPerimeter;outlineConnect=0;targetShapes=umlLifeline;portConstraint=eastwest;newEdgeStyle={&quot;curved&quot;:0,&quot;rounded&quot;:0};rounded=1;sketch=1;curveFitting=1;jiggle=2;" parent="1" vertex="1">
          <mxGeometry x="1080" y="1858" width="10" height="20" as="geometry" />
        </mxCell>
        <mxCell id="p6Y60VUHbfP7wd-aXwZV-27" value="" style="endArrow=none;dashed=1;html=1;dashPattern=1 3;strokeWidth=2;rounded=0;strokeColor=#2086c9;" parent="1" edge="1" source="EbVT8IRe4g0P7FtHzSbO-1">
          <mxGeometry width="50" height="50" relative="1" as="geometry">
            <mxPoint x="1085" y="2152" as="sourcePoint" />
            <mxPoint x="1085" y="1978" as="targetPoint" />
          </mxGeometry>
        </mxCell>
        <mxCell id="p6Y60VUHbfP7wd-aXwZV-30" value="RabbitMQ" style="shape=umlLifeline;perimeter=lifelinePerimeter;whiteSpace=wrap;html=1;container=1;dropTarget=0;collapsible=0;recursiveResize=0;outlineConnect=0;portConstraint=eastwest;newEdgeStyle={&quot;curved&quot;:0,&quot;rounded&quot;:0};rounded=1;sketch=1;curveFitting=1;jiggle=2;shadow=1;fillColor=#dd9b55;strokeColor=#d79b00;" parent="1" vertex="1">
          <mxGeometry x="1209" y="1500" width="100" height="620" as="geometry" />
        </mxCell>
        <mxCell id="p6Y60VUHbfP7wd-aXwZV-31" value="" style="html=1;points=[[0,0,0,0,5],[0,1,0,0,-5],[1,0,0,0,5],[1,1,0,0,-5]];perimeter=orthogonalPerimeter;outlineConnect=0;targetShapes=umlLifeline;portConstraint=eastwest;newEdgeStyle={&quot;curved&quot;:0,&quot;rounded&quot;:0};rounded=1;sketch=1;curveFitting=1;jiggle=2;" parent="p6Y60VUHbfP7wd-aXwZV-30" vertex="1">
          <mxGeometry x="45" y="230" width="10" height="32" as="geometry" />
        </mxCell>
        <mxCell id="p6Y60VUHbfP7wd-aXwZV-32" value="" style="html=1;points=[[0,0,0,0,5],[0,1,0,0,-5],[1,0,0,0,5],[1,1,0,0,-5]];perimeter=orthogonalPerimeter;outlineConnect=0;targetShapes=umlLifeline;portConstraint=eastwest;newEdgeStyle={&quot;curved&quot;:0,&quot;rounded&quot;:0};rounded=1;sketch=1;curveFitting=1;jiggle=2;" parent="p6Y60VUHbfP7wd-aXwZV-30" vertex="1">
          <mxGeometry x="45" y="309" width="10" height="31" as="geometry" />
        </mxCell>
        <mxCell id="J2wZCcpqfvK2SJkcsM0K-9" value="" style="html=1;points=[[0,0,0,0,5],[0,1,0,0,-5],[1,0,0,0,5],[1,1,0,0,-5]];perimeter=orthogonalPerimeter;outlineConnect=0;targetShapes=umlLifeline;portConstraint=eastwest;newEdgeStyle={&quot;curved&quot;:0,&quot;rounded&quot;:0};rounded=1;sketch=1;curveFitting=1;jiggle=2;" parent="p6Y60VUHbfP7wd-aXwZV-30" vertex="1">
          <mxGeometry x="45" y="472" width="10" height="31" as="geometry" />
        </mxCell>
        <mxCell id="J2wZCcpqfvK2SJkcsM0K-2" value="" style="html=1;verticalAlign=bottom;startArrow=oval;startFill=1;endArrow=block;startSize=8;curved=0;rounded=0;fontStyle=2;sketch=1;curveFitting=1;jiggle=2;" parent="1" edge="1">
          <mxGeometry width="60" relative="1" as="geometry">
            <mxPoint x="885" y="1832" as="sourcePoint" />
            <mxPoint x="1254" y="1832" as="targetPoint" />
          </mxGeometry>
        </mxCell>
        <mxCell id="J2wZCcpqfvK2SJkcsM0K-3" value="&lt;i&gt;&lt;font style=&quot;font-size: 9px;&quot;&gt;OutboxBackgroundService:SendMessage()&amp;nbsp;&lt;/font&gt;&lt;/i&gt;" style="edgeLabel;html=1;align=center;verticalAlign=middle;resizable=0;points=[];" parent="J2wZCcpqfvK2SJkcsM0K-2" vertex="1" connectable="0">
          <mxGeometry x="-0.2654" y="4" relative="1" as="geometry">
            <mxPoint x="19" y="-6" as="offset" />
          </mxGeometry>
        </mxCell>
        <mxCell id="p6Y60VUHbfP7wd-aXwZV-18" value="" style="html=1;verticalAlign=bottom;startArrow=oval;startFill=1;endArrow=block;startSize=8;curved=0;rounded=0;fontStyle=2;sketch=1;curveFitting=1;jiggle=2;dashed=1;flowAnimation=1;" parent="1" edge="1">
          <mxGeometry width="60" relative="1" as="geometry">
            <mxPoint x="1450" y="1863" as="sourcePoint" />
            <mxPoint x="1090" y="1863" as="targetPoint" />
          </mxGeometry>
        </mxCell>
        <mxCell id="p6Y60VUHbfP7wd-aXwZV-19" value="Remove register outbox DB" style="edgeLabel;html=1;align=center;verticalAlign=middle;resizable=0;points=[];labelBackgroundColor=none;fontSize=12;fontStyle=2" parent="p6Y60VUHbfP7wd-aXwZV-18" vertex="1" connectable="0">
          <mxGeometry x="-0.2654" y="4" relative="1" as="geometry">
            <mxPoint x="-54" y="4" as="offset" />
          </mxGeometry>
        </mxCell>
        <mxCell id="J2wZCcpqfvK2SJkcsM0K-11" value="" style="html=1;verticalAlign=bottom;startArrow=oval;startFill=1;endArrow=block;startSize=8;curved=0;rounded=0;fontStyle=2;sketch=1;curveFitting=1;jiggle=2;" parent="1" source="J2wZCcpqfvK2SJkcsM0K-9" target="p6Y60VUHbfP7wd-aXwZV-29" edge="1">
          <mxGeometry width="60" relative="1" as="geometry">
            <mxPoint x="1240" y="2001.58" as="sourcePoint" />
            <mxPoint x="1740" y="1972" as="targetPoint" />
          </mxGeometry>
        </mxCell>
        <mxCell id="J2wZCcpqfvK2SJkcsM0K-12" value="RabbitMQ delivery too&lt;div style=&quot;font-size: 8px;&quot;&gt;the message&lt;/div&gt;" style="edgeLabel;html=1;align=center;verticalAlign=middle;resizable=0;points=[];labelBackgroundColor=none;fontStyle=2;fontSize=8;" parent="J2wZCcpqfvK2SJkcsM0K-11" vertex="1" connectable="0">
          <mxGeometry x="-0.2654" y="4" relative="1" as="geometry">
            <mxPoint x="19" y="-11" as="offset" />
          </mxGeometry>
        </mxCell>
        <mxCell id="EbVT8IRe4g0P7FtHzSbO-2" value="" style="endArrow=none;dashed=1;html=1;dashPattern=1 3;strokeWidth=2;rounded=0;entryX=0.5;entryY=1;entryDx=0;entryDy=0;entryPerimeter=0;strokeColor=#2086c9;" edge="1" parent="1">
          <mxGeometry width="50" height="50" relative="1" as="geometry">
            <mxPoint x="1087" y="2252" as="sourcePoint" />
            <mxPoint x="1082" y="2052" as="targetPoint" />
          </mxGeometry>
        </mxCell>
        <mxCell id="EbVT8IRe4g0P7FtHzSbO-1" value="" style="html=1;points=[[0,0,0,0,5],[0,1,0,0,-5],[1,0,0,0,5],[1,1,0,0,-5]];perimeter=orthogonalPerimeter;outlineConnect=0;targetShapes=umlLifeline;portConstraint=eastwest;newEdgeStyle={&quot;curved&quot;:0,&quot;rounded&quot;:0};rounded=1;sketch=1;curveFitting=1;jiggle=2;" vertex="1" parent="1">
          <mxGeometry x="1080" y="1998" width="10" height="54" as="geometry" />
        </mxCell>
        <mxCell id="EbVT8IRe4g0P7FtHzSbO-6" value="" style="line;strokeWidth=1;fillColor=none;align=left;verticalAlign=middle;spacingTop=-1;spacingLeft=3;spacingRight=3;rotatable=0;labelPosition=right;points=[];portConstraint=eastwest;strokeColor=inherit;dashed=1;" vertex="1" parent="1">
          <mxGeometry x="920" y="2095" width="630" height="8" as="geometry" />
        </mxCell>
        <mxCell id="EbVT8IRe4g0P7FtHzSbO-10" value="&lt;font style=&quot;font-size: 10px;&quot;&gt;[message stil ls in outbox DB&lt;/font&gt;&lt;span style=&quot;background-color: initial;&quot;&gt;]&lt;/span&gt;" style="text;html=1;align=center;verticalAlign=middle;whiteSpace=wrap;rounded=0;fontSize=10;fontStyle=2" vertex="1" parent="1">
          <mxGeometry x="925" y="1972" width="80" height="30" as="geometry" />
        </mxCell>
        <mxCell id="EbVT8IRe4g0P7FtHzSbO-11" value="&lt;font style=&quot;font-size: 9px;&quot;&gt;[else&lt;/font&gt;&lt;span style=&quot;background-color: initial;&quot;&gt;]&lt;/span&gt;" style="text;html=1;align=center;verticalAlign=middle;whiteSpace=wrap;rounded=0;fontSize=9;fontStyle=2" vertex="1" parent="1">
          <mxGeometry x="925" y="2105" width="65" height="32" as="geometry" />
        </mxCell>
        <mxCell id="EbVT8IRe4g0P7FtHzSbO-12" value="&lt;font style=&quot;font-size: 9px;&quot;&gt;&lt;i&gt;Masstransit&lt;/i&gt;&lt;/font&gt;" style="shape=umlFrame;whiteSpace=wrap;html=1;pointerEvents=0;sketch=1;curveFitting=1;jiggle=2;" vertex="1" parent="1">
          <mxGeometry x="1160" y="2105" width="370" height="114" as="geometry" />
        </mxCell>
        <mxCell id="EbVT8IRe4g0P7FtHzSbO-13" value="" style="html=1;points=[[0,0,0,0,5],[0,1,0,0,-5],[1,0,0,0,5],[1,1,0,0,-5]];perimeter=orthogonalPerimeter;outlineConnect=0;targetShapes=umlLifeline;portConstraint=eastwest;newEdgeStyle={&quot;curved&quot;:0,&quot;rounded&quot;:0};rounded=1;sketch=1;curveFitting=1;jiggle=2;" vertex="1" parent="1">
          <mxGeometry x="1254" y="2114" width="10" height="31" as="geometry" />
        </mxCell>
        <mxCell id="EbVT8IRe4g0P7FtHzSbO-14" value="" style="html=1;points=[[0,0,0,0,5],[0,1,0,0,-5],[1,0,0,0,5],[1,1,0,0,-5]];perimeter=orthogonalPerimeter;outlineConnect=0;targetShapes=umlLifeline;portConstraint=eastwest;newEdgeStyle={&quot;curved&quot;:0,&quot;rounded&quot;:0};rounded=1;sketch=1;curveFitting=1;jiggle=2;" vertex="1" parent="1">
          <mxGeometry x="1450" y="2113" width="10" height="82" as="geometry" />
        </mxCell>
        <mxCell id="EbVT8IRe4g0P7FtHzSbO-15" value="" style="html=1;verticalAlign=bottom;startArrow=oval;startFill=1;endArrow=block;startSize=8;curved=0;rounded=0;fontStyle=2;sketch=1;curveFitting=1;jiggle=2;" edge="1" parent="1">
          <mxGeometry width="60" relative="1" as="geometry">
            <mxPoint x="1264" y="2137.17" as="sourcePoint" />
            <mxPoint x="1450" y="2137.17" as="targetPoint" />
          </mxGeometry>
        </mxCell>
        <mxCell id="EbVT8IRe4g0P7FtHzSbO-16" value="&lt;span style=&quot;font-size: 8px;&quot;&gt;RabbitMQ delivery too&lt;/span&gt;&lt;div style=&quot;font-size: 8px;&quot;&gt;the message&lt;/div&gt;" style="edgeLabel;html=1;align=center;verticalAlign=middle;resizable=0;points=[];labelBackgroundColor=none;fontSize=7;fontStyle=2" vertex="1" connectable="0" parent="EbVT8IRe4g0P7FtHzSbO-15">
          <mxGeometry x="-0.2654" y="4" relative="1" as="geometry">
            <mxPoint x="19" y="-11" as="offset" />
          </mxGeometry>
        </mxCell>
        <mxCell id="EbVT8IRe4g0P7FtHzSbO-17" value="message is in&lt;div&gt;outbox&lt;br&gt;&lt;/div&gt;" style="html=1;align=left;spacingLeft=2;endArrow=block;rounded=0;edgeStyle=orthogonalEdgeStyle;curved=0;rounded=0;sketch=1;curveFitting=1;jiggle=2;exitX=0;exitY=0;exitDx=0;exitDy=5;exitPerimeter=0;fontSize=8;fontStyle=2;labelBackgroundColor=none;" edge="1" parent="1" source="EbVT8IRe4g0P7FtHzSbO-1" target="EbVT8IRe4g0P7FtHzSbO-1">
          <mxGeometry x="0.2053" y="-14" relative="1" as="geometry">
            <mxPoint x="1040" y="1998" as="sourcePoint" />
            <Array as="points">
              <mxPoint x="1080" y="2002" />
              <mxPoint x="1020" y="2002" />
              <mxPoint x="1020" y="2032" />
            </Array>
            <mxPoint x="1040" y="2038" as="targetPoint" />
            <mxPoint x="-10" y="-4" as="offset" />
          </mxGeometry>
        </mxCell>
        <mxCell id="EbVT8IRe4g0P7FtHzSbO-19" value="" style="html=1;points=[[0,0,0,0,5],[0,1,0,0,-5],[1,0,0,0,5],[1,1,0,0,-5]];perimeter=orthogonalPerimeter;outlineConnect=0;targetShapes=umlLifeline;portConstraint=eastwest;newEdgeStyle={&quot;curved&quot;:0,&quot;rounded&quot;:0};rounded=1;sketch=1;curveFitting=1;jiggle=2;" vertex="1" parent="1">
          <mxGeometry x="1080" y="2140" width="10" height="55" as="geometry" />
        </mxCell>
        <mxCell id="EbVT8IRe4g0P7FtHzSbO-20" value="" style="html=1;verticalAlign=bottom;startArrow=oval;startFill=1;endArrow=block;startSize=8;curved=0;rounded=0;fontStyle=2;sketch=1;curveFitting=1;jiggle=2;" edge="1" parent="1">
          <mxGeometry width="60" relative="1" as="geometry">
            <mxPoint x="1090" y="2035" as="sourcePoint" />
            <mxPoint x="1450" y="2035" as="targetPoint" />
          </mxGeometry>
        </mxCell>
        <mxCell id="EbVT8IRe4g0P7FtHzSbO-21" value="Message" style="edgeLabel;html=1;align=center;verticalAlign=middle;resizable=0;points=[];labelBackgroundColor=none;fontSize=8;fontStyle=2" vertex="1" connectable="0" parent="EbVT8IRe4g0P7FtHzSbO-20">
          <mxGeometry x="-0.2654" y="4" relative="1" as="geometry">
            <mxPoint x="128" y="10" as="offset" />
          </mxGeometry>
        </mxCell>
        <mxCell id="EbVT8IRe4g0P7FtHzSbO-22" value="message is not&amp;nbsp;&lt;div&gt;in outbox&lt;/div&gt;" style="html=1;align=left;spacingLeft=2;endArrow=block;rounded=0;edgeStyle=orthogonalEdgeStyle;curved=0;rounded=0;sketch=1;curveFitting=1;jiggle=2;exitX=0;exitY=0;exitDx=0;exitDy=5;exitPerimeter=0;fontSize=8;fontStyle=2;labelBackgroundColor=none;" edge="1" parent="1">
          <mxGeometry x="0.2053" y="-14" relative="1" as="geometry">
            <mxPoint x="1080" y="2146" as="sourcePoint" />
            <Array as="points">
              <mxPoint x="1080" y="2145" />
              <mxPoint x="1020" y="2145" />
              <mxPoint x="1020" y="2175" />
            </Array>
            <mxPoint x="1080" y="2175" as="targetPoint" />
            <mxPoint x="-10" y="-4" as="offset" />
          </mxGeometry>
        </mxCell>
        <mxCell id="EbVT8IRe4g0P7FtHzSbO-23" value="Verify if message&lt;div&gt;is in outbox&lt;/div&gt;" style="html=1;verticalAlign=bottom;endArrow=open;dashed=1;endSize=8;curved=0;rounded=0;fontSize=8;labelBackgroundColor=none;fontStyle=2" edge="1" parent="1">
          <mxGeometry x="-0.4444" y="24" relative="1" as="geometry">
            <mxPoint x="1450" y="2147.8" as="sourcePoint" />
            <mxPoint x="1090" y="2147.8" as="targetPoint" />
            <mxPoint as="offset" />
          </mxGeometry>
        </mxCell>
        <mxCell id="EbVT8IRe4g0P7FtHzSbO-24" value="" style="html=1;verticalAlign=bottom;startArrow=oval;startFill=1;endArrow=block;startSize=8;curved=0;rounded=0;fontStyle=2;sketch=1;curveFitting=1;jiggle=2;" edge="1" parent="1" target="EbVT8IRe4g0P7FtHzSbO-14">
          <mxGeometry width="60" relative="1" as="geometry">
            <mxPoint x="1095" y="2184" as="sourcePoint" />
            <mxPoint x="1455" y="2184" as="targetPoint" />
          </mxGeometry>
        </mxCell>
        <mxCell id="EbVT8IRe4g0P7FtHzSbO-25" value="No message" style="edgeLabel;html=1;align=center;verticalAlign=middle;resizable=0;points=[];labelBackgroundColor=none;fontSize=8;fontStyle=2" vertex="1" connectable="0" parent="EbVT8IRe4g0P7FtHzSbO-24">
          <mxGeometry x="-0.2654" y="4" relative="1" as="geometry">
            <mxPoint x="128" y="10" as="offset" />
          </mxGeometry>
        </mxCell>
        <mxCell id="EbVT8IRe4g0P7FtHzSbO-26" value="Process&lt;br&gt;Message" style="verticalAlign=bottom;startArrow=oval;startFill=1;endArrow=block;startSize=8;curved=0;rounded=0;sketch=1;curveFitting=1;jiggle=2;fontStyle=2;labelBackgroundColor=none;fontSize=9;html=1;" edge="1" parent="1">
          <mxGeometry x="-0.3878" y="10" width="60" relative="1" as="geometry">
            <mxPoint x="1460" y="2052" as="sourcePoint" />
            <mxPoint x="1460" y="2082" as="targetPoint" />
            <Array as="points">
              <mxPoint x="1494" y="2052" />
              <mxPoint x="1494" y="2082" />
            </Array>
            <mxPoint as="offset" />
          </mxGeometry>
        </mxCell>
        <mxCell id="EbVT8IRe4g0P7FtHzSbO-27" value="Process&lt;br&gt;Message" style="verticalAlign=bottom;startArrow=oval;startFill=1;endArrow=block;startSize=8;curved=0;rounded=0;sketch=1;curveFitting=1;jiggle=2;fontStyle=2;labelBackgroundColor=none;fontSize=9;html=1;" edge="1" parent="1">
          <mxGeometry x="-0.3878" y="10" width="60" relative="1" as="geometry">
            <mxPoint x="1460" y="1878" as="sourcePoint" />
            <mxPoint x="1460" y="1908" as="targetPoint" />
            <Array as="points">
              <mxPoint x="1494" y="1878" />
              <mxPoint x="1494" y="1908" />
            </Array>
            <mxPoint as="offset" />
          </mxGeometry>
        </mxCell>
      </root>
    </mxGraphModel>
  </diagram>
</mxfile>
